<?xml version="1.0" encoding="UTF-8"?>
<svg version="1.1" xmlns="http://www.w3.org/2000/svg" width="280" height="280">
<path d="M0 0 C1.95178403 1.70954133 3.82373804 3.45314602 5.640625 5.3046875 C3.58828815 7.552485 2.63395239 8.3069117 -0.359375 9.3046875 C4.260625 8.9746875 8.880625 8.6446875 13.640625 8.3046875 C10.38720727 10.74475079 8.18920518 12.06113612 4.515625 13.4921875 C3.64679687 13.83636719 2.77796875 14.18054688 1.8828125 14.53515625 C-0.359375 15.3046875 -0.359375 15.3046875 -2.359375 15.3046875 C-1.864375 21.2446875 -1.864375 21.2446875 -1.359375 27.3046875 C-4.329375 27.7996875 -4.329375 27.7996875 -7.359375 28.3046875 C-9.359375 22.5546875 -9.359375 22.5546875 -9.359375 20.3046875 C-10.019375 20.3046875 -10.679375 20.3046875 -11.359375 20.3046875 C-10.55242738 24.63286109 -9.81791864 27.59468444 -7.421875 31.3046875 C-1.29059934 35.30878589 6.70794605 33.53716376 13.640625 32.3046875 C14.50263879 35.93698986 14.64636949 39.08603669 14.453125 42.8046875 C14.37276611 47.81372521 15.36395528 49.49952267 18.640625 53.3046875 C18.46030828 58.17323886 17.05922771 62.67058533 15.640625 67.3046875 C13.703125 66.6171875 13.703125 66.6171875 11.640625 65.3046875 C10.703125 62.9921875 10.703125 62.9921875 10.640625 60.3046875 C11.59155797 58.60954613 12.59170262 56.94100642 13.640625 55.3046875 C13.640625 53.9846875 13.640625 52.6646875 13.640625 51.3046875 C11.72596133 51.42646438 11.72596133 51.42646438 9.640625 52.3046875 C7.86914128 54.78401947 7.86914128 54.78401947 6.640625 57.3046875 C5.155625 56.8096875 5.155625 56.8096875 3.640625 56.3046875 C3.145625 52.8396875 3.145625 52.8396875 2.640625 49.3046875 C3.960625 49.3046875 5.280625 49.3046875 6.640625 49.3046875 C6.640625 48.3146875 6.640625 47.3246875 6.640625 46.3046875 C-0.45879584 48.81036544 -4.4165262 51.98678732 -8.13671875 58.3984375 C-9.81624151 61.01699055 -11.74277198 62.65209612 -14.359375 64.3046875 C-15.349375 64.3046875 -16.339375 64.3046875 -17.359375 64.3046875 C-17.318125 65.3153125 -17.276875 66.3259375 -17.234375 67.3671875 C-17.359375 71.3046875 -17.359375 71.3046875 -18.359375 74.4296875 C-20.03009695 79.92810823 -20.44858396 85.66258508 -19.359375 91.3046875 C-17.09384796 94.14464912 -14.52519166 95.60623841 -11.359375 97.3046875 C-7.49563281 99.90581394 -6.4416929 101.70483642 -5.359375 106.3046875 C-5.234375 109.6796875 -5.234375 109.6796875 -5.359375 112.3046875 C-7.234375 112.0546875 -7.234375 112.0546875 -9.359375 111.3046875 C-10.671875 109.4296875 -10.671875 109.4296875 -11.359375 107.3046875 C-10.864375 105.8196875 -10.864375 105.8196875 -10.359375 104.3046875 C-11.019375 104.3046875 -11.679375 104.3046875 -12.359375 104.3046875 C-12.78089844 103.54542969 -13.20242187 102.78617187 -13.63671875 102.00390625 C-15.70293908 98.7663592 -17.51067857 97.8114302 -20.921875 96.1171875 C-26.20696858 93.45709392 -26.20696858 93.45709392 -28.359375 91.3046875 C-26.86214557 94.95367289 -24.74633175 96.86370747 -21.796875 99.4296875 C-18.27356262 102.8231342 -16.74241739 104.95925958 -16.296875 109.8671875 C-16.27661233 111.34636209 -16.28227152 112.82738485 -16.359375 114.3046875 C-18.009375 113.9746875 -19.659375 113.6446875 -21.359375 113.3046875 C-21.6275 112.0465625 -21.895625 110.7884375 -22.171875 109.4921875 C-24.41294671 102.52489524 -30.0915727 98.08953339 -35.359375 93.3046875 C-34.864375 92.0053125 -34.864375 92.0053125 -34.359375 90.6796875 C-33.33440569 87.22041608 -32.85890243 84.87536677 -33.359375 81.3046875 C-35.28073772 78.87392545 -35.28073772 78.87392545 -37.859375 76.9296875 C-38.6946875 76.24132812 -39.53 75.55296875 -40.390625 74.84375 C-41.0403125 74.33585937 -41.69 73.82796875 -42.359375 73.3046875 C-42.54427507 75.62826261 -42.54427507 75.62826261 -40.359375 78.3046875 C-40.545 78.9028125 -40.730625 79.5009375 -40.921875 80.1171875 C-41.63528284 82.5202976 -41.63528284 82.5202976 -39.859375 85.3046875 C-38.359375 88.3046875 -38.359375 88.3046875 -38.671875 90.6796875 C-38.89875 91.2159375 -39.125625 91.7521875 -39.359375 92.3046875 C-39.854375 91.8096875 -39.854375 91.8096875 -40.359375 91.3046875 C-40.30716797 92.28308594 -40.30716797 92.28308594 -40.25390625 93.28125 C-40.08465315 98.7457071 -40.22115936 102.59736404 -43.359375 107.3046875 C-44.349375 107.7996875 -44.349375 107.7996875 -45.359375 108.3046875 C-45.359375 105.6646875 -45.359375 103.0246875 -45.359375 100.3046875 C-46.101875 100.9440625 -46.844375 101.5834375 -47.609375 102.2421875 C-50.0704871 104.08802157 -51.39404426 104.86537924 -54.359375 105.3046875 C-54.05 104.5621875 -53.740625 103.8196875 -53.421875 103.0546875 C-52.5498825 100.79776574 -51.88270493 98.6596722 -51.359375 96.3046875 C-52.019375 96.3046875 -52.679375 96.3046875 -53.359375 96.3046875 C-52.699375 93.6646875 -52.039375 91.0246875 -51.359375 88.3046875 C-52.679375 89.2946875 -53.999375 90.2846875 -55.359375 91.3046875 C-55.359375 88.9946875 -55.359375 86.6846875 -55.359375 84.3046875 C-56.844375 84.7996875 -56.844375 84.7996875 -58.359375 85.3046875 C-58.359375 80.6846875 -58.359375 76.0646875 -58.359375 71.3046875 C-56.5340625 71.088125 -56.5340625 71.088125 -54.671875 70.8671875 C-53.94097656 70.76664062 -53.21007813 70.66609375 -52.45703125 70.5625 C-50.359375 70.3046875 -50.359375 70.3046875 -47.609375 70.2421875 C-44.40064953 68.90521855 -44.17013924 66.67097158 -42.859375 63.62890625 C-40.22654799 59.54939565 -36.09951746 57.15988889 -32.13671875 54.48046875 C-29.12844992 52.12377995 -27.7579512 50.85417745 -26.359375 47.3046875 C-26.06297187 43.8559411 -26.16905392 40.44818003 -26.296875 36.9921875 C-26.51931625 30.29528615 -26.15199647 24.76853834 -24.359375 18.3046875 C-24.689375 17.9746875 -25.019375 17.6446875 -25.359375 17.3046875 C-25.90708866 12.03406591 -25.99431146 7.62159275 -23.671875 2.8046875 C-17.0908767 -4.30990526 -8.0594949 -5.79109402 0 0 Z M5.640625 39.3046875 C5.640625 39.9646875 5.640625 40.6246875 5.640625 41.3046875 C8.115625 42.2946875 8.115625 42.2946875 10.640625 43.3046875 C10.640625 41.3246875 10.640625 39.3446875 10.640625 37.3046875 C8.80016112 37.3046875 7.24432906 38.47696927 5.640625 39.3046875 Z " fill="#373635" transform="translate(58.359375,86.6953125)"/>
<path d="M0 0 C3.63690552 3.86312452 5.1328125 7.12878762 5.1328125 12.546875 C4.7615625 13.68125 4.3903125 14.815625 4.0078125 15.984375 C2.74373859 19.61253119 2.74373859 19.61253119 4.625 23.14453125 C6.63600622 28.11710753 5.98814769 32.32475169 5.3828125 37.546875 C4.77389349 44.10069445 4.77389349 44.10069445 6.296875 50.37890625 C8.1032192 52.46981152 9.8654765 53.97030445 12.1328125 55.546875 C13.71928182 56.73018215 15.30259322 57.91773423 16.8828125 59.109375 C17.6459375 59.67011719 18.4090625 60.23085937 19.1953125 60.80859375 C21.23060505 62.63461227 21.9714122 63.8792753 22.8828125 66.421875 C23.2953125 67.453125 23.7078125 68.484375 24.1328125 69.546875 C27.01704216 70.71615729 29.26991758 70.546875 32.3828125 70.546875 C33.2903125 70.546875 34.1978125 70.546875 35.1328125 70.546875 C36.1328125 71.546875 36.1328125 71.546875 36.23046875 74.48828125 C36.21886719 75.68324219 36.20726562 76.87820312 36.1953125 78.109375 C36.18628906 79.30691406 36.17726563 80.50445312 36.16796875 81.73828125 C36.15636719 82.66511719 36.14476562 83.59195313 36.1328125 84.546875 C35.4728125 84.546875 34.8128125 84.546875 34.1328125 84.546875 C34.1328125 86.856875 34.1328125 89.166875 34.1328125 91.546875 C32.1528125 90.556875 32.1528125 90.556875 30.1328125 89.546875 C31.1228125 93.011875 31.1228125 93.011875 32.1328125 96.546875 C31.1428125 96.546875 30.1528125 96.546875 29.1328125 96.546875 C29.7721875 97.475 30.4115625 98.403125 31.0703125 99.359375 C33.1328125 102.546875 33.1328125 102.546875 34.1328125 105.546875 C29.70190779 104.33844644 27.15168494 103.03018935 24.1328125 99.546875 C24.6278125 104.001875 24.6278125 104.001875 25.1328125 108.546875 C23.6478125 108.051875 23.6478125 108.051875 22.1328125 107.546875 C19.32411755 101.72143362 18.73214939 96.95748473 19.1328125 90.546875 C18.4728125 91.206875 17.8128125 91.866875 17.1328125 92.546875 C17.64317081 88.1577935 18.65495527 85.20979438 21.1328125 81.546875 C20.4728125 81.546875 19.8128125 81.546875 19.1328125 81.546875 C20.33257683 78.46176673 21.63283806 75.49640458 23.1328125 72.546875 C22.59011719 73.02898437 22.04742187 73.51109375 21.48828125 74.0078125 C20.77285156 74.63945312 20.05742187 75.27109375 19.3203125 75.921875 C18.61261719 76.54835938 17.90492188 77.17484375 17.17578125 77.8203125 C15.1328125 79.546875 15.1328125 79.546875 12.1328125 81.546875 C12.73955609 86.32983975 12.73955609 86.32983975 13.96875 90.97265625 C14.1328125 93.546875 14.1328125 93.546875 12.11328125 96.046875 C10.73076172 97.284375 10.73076172 97.284375 9.3203125 98.546875 C4.8111489 102.61720604 3.01532461 105.55991092 1.3203125 111.296875 C0.1328125 113.546875 0.1328125 113.546875 -2.4921875 114.359375 C-3.6678125 114.4521875 -3.6678125 114.4521875 -4.8671875 114.546875 C-5.25308931 110.40964863 -5.26788563 106.47738659 -2.74023438 102.99365234 C0.30096409 99.57711609 3.67969231 96.53919991 7.1328125 93.546875 C6.8028125 93.216875 6.4728125 92.886875 6.1328125 92.546875 C4.18526076 93.75297303 2.2418491 94.96475261 0.3046875 96.1875 C-1.52761758 97.33433843 -3.38256824 98.4448784 -5.2421875 99.546875 C-8.72006586 102.19668708 -9.51999071 104.52156038 -10.2421875 108.734375 C-10.8671875 110.546875 -10.8671875 110.546875 -12.9296875 111.796875 C-13.88875 112.168125 -13.88875 112.168125 -14.8671875 112.546875 C-15.8671875 111.546875 -15.8671875 111.546875 -16.1171875 109.421875 C-15.7820308 105.56757296 -14.72040252 102.94443587 -12.8671875 99.546875 C-9.84399421 97.26268452 -6.75502691 95.48569649 -3.4296875 93.671875 C-1.81709825 92.47756064 -1.81709825 92.47756064 -0.8671875 90.546875 C-0.37995433 83.49481596 -1.60145826 77.18489991 -3.8671875 70.546875 C-3.9921875 67.171875 -3.9921875 67.171875 -3.8671875 64.546875 C-4.5684375 64.52625 -5.2696875 64.505625 -5.9921875 64.484375 C-10.236908 63.10022701 -12.3395935 60.12701548 -14.8671875 56.546875 C-15.19332031 55.85464844 -15.51945312 55.16242188 -15.85546875 54.44921875 C-17.42964479 51.48928156 -20.07505193 50.29195973 -22.8671875 48.546875 C-23.5271875 47.886875 -24.1871875 47.226875 -24.8671875 46.546875 C-26.3521875 47.041875 -26.3521875 47.041875 -27.8671875 47.546875 C-27.8671875 48.206875 -27.8671875 48.866875 -27.8671875 49.546875 C-26.5471875 49.546875 -25.2271875 49.546875 -23.8671875 49.546875 C-24.12280073 51.8899963 -24.45989522 54.22530903 -24.8671875 56.546875 C-25.8571875 57.041875 -25.8571875 57.041875 -26.8671875 57.546875 C-29.37801864 56.29145943 -29.73844196 55.04624012 -30.8671875 52.546875 C-31.8571875 52.546875 -32.8471875 52.546875 -33.8671875 52.546875 C-34.18774257 56.33061818 -34.18774257 56.33061818 -32.8046875 58.484375 C-31.53909798 61.26867195 -31.82034502 62.70544541 -32.8671875 65.546875 C-34.9296875 66.859375 -34.9296875 66.859375 -36.8671875 67.546875 C-37.36744825 65.57918273 -37.86458608 63.61059915 -38.33984375 61.63671875 C-38.74101443 60.04689422 -39.22368196 58.47739162 -39.7421875 56.921875 C-39.8671875 54.546875 -39.8671875 54.546875 -37.921875 51.890625 C-35.57427839 48.07020162 -35.21008688 45.02970056 -35.1171875 40.671875 C-35.08753906 39.98351562 -35.05789062 39.29515625 -35.02734375 38.5859375 C-34.95738214 36.90685874 -34.90993539 35.22686688 -34.8671875 33.546875 C-30.90365255 32.22569668 -27.75412588 32.89391277 -23.65625 33.390625 C-19.13717386 33.64379453 -16.65170964 33.15705889 -13.0546875 30.359375 C-10.51035468 27.08808994 -10.39755391 25.58572385 -10.8671875 21.546875 C-11.8571875 23.856875 -12.8471875 26.166875 -13.8671875 28.546875 C-15.8471875 28.216875 -17.8271875 27.886875 -19.8671875 27.546875 C-19.5371875 23.586875 -19.2071875 19.626875 -18.8671875 15.546875 C-20.878125 14.8971875 -20.878125 14.8971875 -22.9296875 14.234375 C-27.01959919 12.87538536 -30.93370499 11.30438846 -34.8671875 9.546875 C-34.8671875 9.216875 -34.8671875 8.886875 -34.8671875 8.546875 C-27.9371875 9.041875 -27.9371875 9.041875 -20.8671875 9.546875 C-22.5171875 8.886875 -24.1671875 8.226875 -25.8671875 7.546875 C-25.62563285 4.28588726 -24.64003526 3.31418246 -22.3046875 0.921875 C-15.78240807 -4.09406847 -6.78422581 -5.27977406 0 0 Z M-31.8671875 37.546875 C-31.8671875 39.196875 -31.8671875 40.846875 -31.8671875 42.546875 C-30.8771875 43.041875 -30.8771875 43.041875 -29.8671875 43.546875 C-28.8771875 42.886875 -27.8871875 42.226875 -26.8671875 41.546875 C-26.8671875 40.886875 -26.8671875 40.226875 -26.8671875 39.546875 C-29.3421875 38.556875 -29.3421875 38.556875 -31.8671875 37.546875 Z " fill="#383736" transform="translate(243.8671875,86.453125)"/>
<path d="M0 0 C1.0771376 0.36643112 2.15427521 0.73286224 3.26405334 1.11039734 C5.53365385 1.88430108 7.80198117 2.66194759 10.0690918 3.44311523 C13.5176314 4.63068374 16.97030382 5.8055324 20.42382812 6.97851562 C22.63697519 7.73492719 24.84987425 8.49206487 27.0625 9.25 C28.08464096 9.59807205 29.10678192 9.9461441 30.15989685 10.30476379 C36.11760624 12.36389016 41.88796766 14.65142661 47.59765625 17.32421875 C48.28980623 54.93103422 38.01155206 96.85165938 12.59765625 125.32421875 C11.87964844 126.15050781 11.16164063 126.97679687 10.421875 127.828125 C-8.13930549 148.89490002 -8.13930549 148.89490002 -15.40234375 152.32421875 C-19.62587429 152.20764572 -22.49932289 149.02855336 -25.52734375 146.38671875 C-26.10210449 145.89018799 -26.67686523 145.39365723 -27.26904297 144.88208008 C-61.39186486 115.10397184 -77.44714169 76.34842626 -80.61279297 31.33154297 C-80.78317191 26.64654604 -80.71116581 22.00458862 -80.40234375 17.32421875 C-74.18565814 14.4445409 -67.90969419 11.98697545 -61.43359375 9.7578125 C-60.05306824 9.27756371 -60.05306824 9.27756371 -58.64465332 8.78761292 C-55.73179459 7.77535282 -52.81709514 6.7685142 -49.90234375 5.76171875 C-47.94779751 5.08302534 -45.99336939 4.40399169 -44.0390625 3.72460938 C-33.97908371 0.23214175 -33.97908371 0.23214175 -30.78295898 -0.84890747 C-29.19863064 -1.39920201 -27.62460217 -1.98011535 -26.06274414 -2.59127808 C-16.62120638 -6.15381063 -9.16196727 -3.1681047 0 0 Z M-24.12573242 0.72949219 C-25.03405319 1.03691345 -25.94237396 1.34433472 -26.8782196 1.66107178 C-27.84911026 1.99850403 -28.82000092 2.33593628 -29.8203125 2.68359375 C-30.83273514 3.02924377 -31.84515778 3.3748938 -32.88825989 3.73101807 C-35.0303279 4.46392001 -37.17114662 5.20048206 -39.31079102 5.94042969 C-42.55805943 7.06322877 -45.808869 8.17520021 -49.06054688 9.28515625 C-51.14735395 10.00066503 -53.23394938 10.71679147 -55.3203125 11.43359375 C-56.281082 11.76292908 -57.2418515 12.0922644 -58.23173523 12.43157959 C-68.50487416 15.21127468 -68.50487416 15.21127468 -77.40234375 20.32421875 C-77.66425491 57.72513307 -65.67789723 96.80371212 -41.40234375 125.32421875 C-40.56574219 126.31421875 -39.72914062 127.30421875 -38.8671875 128.32421875 C-32.14328849 135.99649655 -24.565282 142.249474 -16.40234375 148.32421875 C-14.5632068 146.87321135 -12.73116845 145.41320216 -10.90234375 143.94921875 C-9.88140625 143.13710937 -8.86046875 142.325 -7.80859375 141.48828125 C-7.01453125 140.77414063 -6.22046875 140.06 -5.40234375 139.32421875 C-5.40234375 138.66421875 -5.40234375 138.00421875 -5.40234375 137.32421875 C-4.82484375 137.07671875 -4.24734375 136.82921875 -3.65234375 136.57421875 C-1.07294396 135.14121887 0.65887217 133.53997199 2.59765625 131.32421875 C2.59765625 130.66421875 2.59765625 130.00421875 2.59765625 129.32421875 C3.58765625 128.99421875 4.57765625 128.66421875 5.59765625 128.32421875 C7.44451462 126.23621009 9.1571508 124.15783816 10.84765625 121.94921875 C11.33782227 121.31435547 11.82798828 120.67949219 12.33300781 120.02539062 C33.56815752 92.20580674 44.02291101 55.2724285 43.59765625 20.32421875 C37.26248771 16.95590366 30.84366595 14.51475714 24.0546875 12.21484375 C22.9680632 11.84317078 21.8814389 11.4714978 20.7618866 11.08856201 C18.47773676 10.3092526 16.19258561 9.53287249 13.90649414 8.75927734 C10.40752514 7.57332696 6.91365185 6.37315892 3.41992188 5.171875 C1.19430396 4.41450144 -1.03159798 3.65796188 -3.2578125 2.90234375 C-4.3005986 2.54303772 -5.3433847 2.18373169 -6.41777039 1.8135376 C-7.880028 1.32237457 -7.880028 1.32237457 -9.37182617 0.82128906 C-10.2248381 0.53135071 -11.07785004 0.24141235 -11.95671082 -0.05731201 C-16.40070291 -1.18114068 -19.83275825 -0.74267104 -24.12573242 0.72949219 Z " fill="#353535" transform="translate(157.40234375,59.67578125)"/>
<path d="M0 0 C1.70884005 1.62339805 3.37446717 3.29319053 5 5 C5 5.66 5 6.32 5 7 C5.680625 7.226875 6.36125 7.45375 7.0625 7.6875 C9.58013677 8.81240154 11.13143986 9.82589304 13.25 11.5 C17.13180438 14.37730237 21.19424962 15.60883427 26 16 C26.99 15.67 27.98 15.34 29 15 C27.87450625 20.81505105 26.30642235 25.96979012 24.01953125 31.42578125 C22.39374115 35.53074552 21.19293006 39.75244599 20 44 C19.16597656 43.86722656 18.33195312 43.73445313 17.47265625 43.59765625 C15.12910594 43.22988261 12.78392987 42.8723678 10.4375 42.5234375 C8.49480519 42.22761806 6.55409296 41.91345883 4.625 41.5390625 C-1.5356489 40.48895189 -6.9385712 41.8456442 -12.9609375 43.30859375 C-16 44 -16 44 -19 44 C-19.185625 42.865625 -19.37125 41.73125 -19.5625 40.5625 C-20.82127113 34.69136602 -23.26533881 29.31688553 -25.69946289 23.85375977 C-28.10480082 18.31440247 -28.10480082 18.31440247 -27 15 C-26.0409375 15.6496875 -26.0409375 15.6496875 -25.0625 16.3125 C-21.32503084 17.15152369 -20.59675449 16.50129095 -17.375 14.625 C-16.61960937 14.14289062 -15.86421875 13.66078125 -15.0859375 13.1640625 C-13 12 -13 12 -10 12 C-10 11.34 -10 10.68 -10 10 C-6.53846154 7 -6.53846154 7 -4 7 C-3.71125 6.21625 -3.4225 5.4325 -3.125 4.625 C-2 2 -2 2 0 0 Z " fill="#808080" transform="translate(140,12)"/>
<path d="M0 0 C2.98714568 1.2008572 6.00802211 2.3020216 9.0345459 3.39916992 C22.54472277 8.3234093 22.54472277 8.3234093 24.0423584 9.82104492 C24.27969767 45.94408148 14.11570102 83.8223218 -10.83654785 110.54760742 C-12.79973303 112.65179485 -14.66337678 114.81074166 -16.5201416 117.00854492 C-21.39781775 122.61051637 -27.11669778 127.25780756 -32.9576416 131.82104492 C-39.25356114 129.65959367 -43.21364203 125.34559417 -47.9576416 120.82104492 C-48.46923828 120.34199707 -48.98083496 119.86294922 -49.50793457 119.36938477 C-76.1374763 94.34686811 -90.77968793 59.34536493 -92.03039551 22.6887207 C-92.11297326 18.06337162 -92.06574655 13.44553417 -91.9576416 8.82104492 C-90.08685694 8.12360069 -88.21567256 7.42722871 -86.34436035 6.73120117 C-84.52376099 6.05359741 -84.52376099 6.05359741 -82.66638184 5.36230469 C-79.95303276 4.35851971 -77.23256283 3.37834141 -74.50476074 2.41455078 C-67.93395194 0.08287189 -61.54331725 -2.29923235 -55.2545166 -5.33520508 C-34.86147533 -14.61514063 -19.56336022 -7.99463704 0 0 Z M-41.43737793 -5.86547852 C-42.29209183 -5.578078 -43.14680573 -5.29067749 -44.02742004 -4.99456787 C-44.93896347 -4.6790094 -45.8505069 -4.36345093 -46.78967285 -4.03833008 C-47.7402507 -3.7148761 -48.69082855 -3.39142212 -49.67021179 -3.0581665 C-51.67947383 -2.37245935 -53.68745043 -1.68297561 -55.69421387 -0.98999023 C-58.74548442 0.06253948 -61.80130828 1.10088091 -64.85803223 2.13745117 C-66.81470219 2.80717813 -68.77109179 3.47772489 -70.72717285 4.14916992 C-71.63264359 4.45663147 -72.53811432 4.76409302 -73.47102356 5.08087158 C-78.87786927 6.9579357 -83.89264942 9.152587 -88.9576416 11.82104492 C-90.70598254 47.02278294 -77.98354985 81.8513653 -55.9576416 108.82104492 C-54.31435422 110.51076743 -52.64779729 112.17820308 -50.9576416 113.82104492 C-50.21643066 114.57385742 -49.47521973 115.32666992 -48.71154785 116.10229492 C-42.67924936 122.36129606 -42.67924936 122.36129606 -35.9576416 127.82104492 C-31.74110798 127.6574725 -29.15355226 124.57768692 -26.2701416 121.82104492 C-25.73977295 121.32121094 -25.2094043 120.82137695 -24.66296387 120.30639648 C-23.5881924 119.28947116 -22.51677927 118.26898404 -21.44885254 117.24487305 C-20.16668717 116.02064442 -18.8647663 114.81716598 -17.5592041 113.61791992 C10.5875347 86.99537275 18.41888013 49.05877371 21.0423584 11.82104492 C11.19224797 7.4580711 1.08354592 3.93852803 -9.10534668 0.46240234 C-11.91652672 -0.49876685 -14.72319763 -1.47239823 -17.52990723 -2.4465332 C-19.327173 -3.06252748 -21.12469021 -3.67778874 -22.92248535 -4.29223633 C-24.17254616 -4.72805779 -24.17254616 -4.72805779 -25.44786072 -5.17268372 C-26.62047203 -5.56891182 -26.62047203 -5.56891182 -27.81677246 -5.97314453 C-28.83836708 -6.32358574 -28.83836708 -6.32358574 -29.88059998 -6.68110657 C-34.03297771 -7.67639479 -37.43977071 -7.2280117 -41.43737793 -5.86547852 Z " fill="#3D3D3D" transform="translate(174.9576416015625,71.178955078125)"/>
<path d="M0 0 C0.144375 1.2375 0.28875 2.475 0.4375 3.75 C0.78688502 6.56504499 1.20379366 9.2701497 2 12 C1.01 12 0.02 12 -1 12 C-1.33 12.33 -1.66 12.66 -2 13 C2.10223585 14.01540112 2.10223585 14.01540112 6 13 C5.67 12.34 5.34 11.68 5 11 C4.67 10.01 4.34 9.02 4 8 C4.61875 7.938125 5.2375 7.87625 5.875 7.8125 C6.926875 7.4103125 6.926875 7.4103125 8 7 C8.433125 5.7625 8.433125 5.7625 8.875 4.5 C9.24625 3.675 9.6175 2.85 10 2 C13.125 1.1875 13.125 1.1875 16 1 C17.04976964 4.14930893 17.10131595 6.38814456 17.0625 9.6875 C17.05347656 10.68136719 17.04445312 11.67523438 17.03515625 12.69921875 C17.02355469 13.45847656 17.01195312 14.21773437 17 15 C15.68 14.67 14.36 14.34 13 14 C13.63921965 16.47627099 13.63921965 16.47627099 15 19 C17.52372901 20.36078035 17.52372901 20.36078035 20 21 C20 20.34 20 19.68 20 19 C19.01 19 18.02 19 17 19 C17 18.01 17 17.02 17 16 C17.7425 15.731875 18.485 15.46375 19.25 15.1875 C22.01274557 14.12651121 22.01274557 14.12651121 24.125 12.375 C26 11 26 11 29 11 C29.144375 12.216875 29.28875 13.43375 29.4375 14.6875 C29.82780953 17.82670377 30.32351856 20.9075134 31 24 C29.68 23.67 28.36 23.34 27 23 C27.11306697 24.95894361 27.11306697 24.95894361 28 27 C30.49034386 28.29660434 30.49034386 28.29660434 33 29 C32.505 26.03 32.505 26.03 32 23 C33.98 23 35.96 23 38 23 C38 23.66 38 24.32 38 25 C38.66 25 39.32 25 40 25 C40 25.66 40 26.32 40 27 C41.65 27.33 43.3 27.66 45 28 C45.495 32.455 45.495 32.455 46 37 C42.3558226 39.4294516 40.28758728 39.16179575 36 39 C37.63412443 37.29159719 38.86906094 36.06546953 41 35 C41.33 34.01 41.66 33.02 42 32 C41.11957031 32.05800781 40.23914063 32.11601563 39.33203125 32.17578125 C29.78935077 32.54647361 29.78935077 32.54647361 25.75 29.75 C24.23880502 27.37526503 23.30822945 25.77406501 23 23 C21.96875 23.268125 20.9375 23.53625 19.875 23.8125 C15.44327094 24.0269385 15.44327094 24.0269385 12.625 21.6875 C10 19 10 19 9 17 C8.25234375 17.04640625 7.5046875 17.0928125 6.734375 17.140625 C-1.47810219 17.44160584 -1.47810219 17.44160584 -4.4375 14.9375 C-4.953125 14.298125 -5.46875 13.65875 -6 13 C-7.90584196 13.20376178 -7.90584196 13.20376178 -10 14 C-16.31329114 14.44303797 -16.31329114 14.44303797 -18.9375 12.75 C-20 11 -20 11 -20 7 C-19.34 7 -18.68 7 -18 7 C-17.01 8.485 -17.01 8.485 -16 10 C-12.93443402 10.73343428 -12.93443402 10.73343428 -10 11 C-10 10.01 -10 9.02 -10 8 C-10.66 8 -11.32 8 -12 8 C-12 7.01 -12 6.02 -12 5 C-10.68 5 -9.36 5 -8 5 C-8 4.34 -8 3.68 -8 3 C-7.34 3 -6.68 3 -6 3 C-6 2.34 -6 1.68 -6 1 C-4 0 -4 0 0 0 Z " fill="#262626" transform="translate(187,34)"/>
<path d="M0 0 C1.67542976 0.28604898 3.34385343 0.61781233 5 1 C5 1.66 5 2.32 5 3 C5.66 3 6.32 3 7 3 C7 3.66 7 4.32 7 5 C8.32 5 9.64 5 11 5 C11 5.99 11 6.98 11 8 C10.34 8 9.68 8 9 8 C9 8.99 9 9.98 9 11 C13.7517398 10.56802365 15.92000054 9.67230705 19 6 C19.125 8.875 19.125 8.875 19 12 C17 14 17 14 13.125 14.1875 C10.28539226 14.120382 7.71483095 13.90494365 5 13 C4.60941406 13.65355469 4.21882813 14.30710937 3.81640625 14.98046875 C2 17 2 17 -0.41015625 17.42578125 C-1.28542969 17.38839844 -2.16070312 17.35101563 -3.0625 17.3125 C-3.94035156 17.28800781 -4.81820312 17.26351562 -5.72265625 17.23828125 C-8 17 -8 17 -10 16 C-10.2475 16.763125 -10.495 17.52625 -10.75 18.3125 C-12.16192497 21.34813868 -13.05377656 22.44504874 -16 24 C-19.11189466 24.24895157 -21.19084526 24.40457737 -24 23 C-24.0928125 24.11375 -24.0928125 24.11375 -24.1875 25.25 C-25.33688153 29.14021441 -26.42081964 30.0349598 -30 32 C-33.99433552 32.62411492 -37.96172346 32.87118735 -42 33 C-42 33.99 -42 34.98 -42 36 C-40.35 36.66 -38.7 37.32 -37 38 C-37 38.33 -37 38.66 -37 39 C-42.41538462 39.36923077 -42.41538462 39.36923077 -45.375 37.5 C-45.91125 37.005 -46.4475 36.51 -47 36 C-46.41196203 32.97580475 -45.77321882 29.98241547 -45 27 C-43.68 27 -42.36 27 -41 27 C-41 26.34 -41 25.68 -41 25 C-40.34 25 -39.68 25 -39 25 C-39 24.34 -39 23.68 -39 23 C-37.02 23 -35.04 23 -33 23 C-33 24.98 -33 26.96 -33 29 C-30.37812506 27.95125002 -29.20628639 27.35068687 -27.75 24.875 C-27.5025 24.25625 -27.255 23.6375 -27 23 C-28.32 23.33 -29.64 23.66 -31 24 C-31 20.98146205 -30.85049285 18.22918921 -30.5 15.25 C-30.36078125 14.05117188 -30.36078125 14.05117188 -30.21875 12.828125 C-30.1465625 12.22484375 -30.074375 11.6215625 -30 11 C-26.17670414 11.5166616 -24.62665115 12.25914662 -22 15 C-21.29875 15.165 -20.5975 15.33 -19.875 15.5 C-19.25625 15.665 -18.6375 15.83 -18 16 C-17.67 16.99 -17.34 17.98 -17 19 C-17.99 19.33 -18.98 19.66 -20 20 C-18.05000871 19.80528889 -18.05000871 19.80528889 -16 19 C-14.71563266 17.0162233 -14.71563266 17.0162233 -14 15 C-15.32 15 -16.64 15 -18 15 C-18.02705729 13.22925083 -18.04642195 11.45838289 -18.0625 9.6875 C-18.07410156 8.70136719 -18.08570312 7.71523438 -18.09765625 6.69921875 C-18 4 -18 4 -17 1 C-13.04218214 1.27612683 -11.30043492 1.74053348 -8.25 4.375 C-6 7 -6 7 -4 10 C-4.99 10 -5.98 10 -7 10 C-6.505 11.485 -6.505 11.485 -6 13 C-3.60280568 13.67958603 -3.60280568 13.67958603 -1 14 C-0.34 13.34 0.32 12.68 1 12 C0.01 12.33 -0.98 12.66 -2 13 C-2.5625 11.0625 -2.5625 11.0625 -3 9 C-2.67 8.67 -2.34 8.34 -2 8 C-1.835 6.845 -1.67 5.69 -1.5 4.5 C-1 1 -1 1 0 0 Z " fill="#363636" transform="translate(95,34)"/>
<path d="M0 0 C1.70884005 1.62339805 3.37446717 3.29319053 5 5 C5 5.66 5 6.32 5 7 C5.7425 7.2475 6.485 7.495 7.25 7.75 C10.20124062 9.09147301 11.84814974 10.60905526 14 13 C13.01 13.495 13.01 13.495 12 14 C11.45580177 15.78242961 11.45580177 15.78242961 11.18359375 17.9296875 C11.05919922 18.72503906 10.93480469 19.52039063 10.80664062 20.33984375 C10.68482422 21.17644531 10.56300781 22.01304688 10.4375 22.875 C10.18828411 24.51854686 9.93706162 26.16179101 9.68359375 27.8046875 C9.57587646 28.53671387 9.46815918 29.26874023 9.35717773 30.02294922 C9 32 9 32 8 35 C3.05 35 -1.9 35 -7 35 C-11.32036966 15.19830574 -11.32036966 15.19830574 -10 10 C-6.76769912 7 -6.76769912 7 -4 7 C-3.71125 6.21625 -3.4225 5.4325 -3.125 4.625 C-2 2 -2 2 0 0 Z " fill="#C1C1C1" transform="translate(140,12)"/>
<path d="M0 0 C16.39025649 6.19069212 32.70304797 12.56872438 49 19 C49 22 49 22 47.6875 23.38671875 C46.125 24.59114583 44.5625 25.79557292 43 27 C27.49999489 21.36805915 12.1192407 15.59279923 -3 9 C-2.5020163 5.26512223 -2.12508244 3.18762365 0 0 Z " fill="#353535" transform="translate(166,48)"/>
<path d="M0 0 C1.99097846 2.98646769 2.94124926 5.59687262 4 9 C-2.38219982 11.72906363 -8.78799197 14.39546137 -15.21386719 17.02001953 C-17.39621288 17.91987232 -19.57278426 18.83386481 -21.74316406 19.76220703 C-24.86669815 21.0953531 -28.00755946 22.37605373 -31.15625 23.6484375 C-32.12115356 24.07313324 -33.08605713 24.49782898 -34.0802002 24.93539429 C-36.82774866 26.01258072 -39.05276052 26.80858625 -42 27 C-45.21721818 25.51208064 -47.56007069 23.54965324 -50 21 C-48.3580901 17.7161802 -44.76757051 17.15872057 -41.484375 15.91796875 C-40.33415863 15.4738842 -40.33415863 15.4738842 -39.16070557 15.02082825 C-36.69294133 14.06980775 -34.2215849 13.12854055 -31.75 12.1875 C-30.1299622 11.56509339 -28.51016757 10.94205347 -26.890625 10.31835938 C-22.98861423 8.81725423 -19.08379199 7.32363639 -15.17797852 5.8324585 C-11.8927983 4.57680966 -8.61043056 3.3139257 -5.328125 2.05078125 C-4.29075195 1.65157471 -3.25337891 1.25236816 -2.18457031 0.84106445 C-1.46366211 0.56351318 -0.74275391 0.28596191 0 0 Z " fill="#272727" transform="translate(115,48)"/>
<path d="M0 0 C8.66666667 0 17.33333333 0 26 0 C26.33 0.66 26.66 1.32 27 2 C27.33 1.34 27.66 0.68 28 0 C32.62 0 37.24 0 42 0 C42 3.63 42 7.26 42 11 C37.66666667 11 33.33333333 11 29 11 C28.26007813 11.04640625 27.52015625 11.0928125 26.7578125 11.140625 C19.57615195 11.43897292 19.57615195 11.43897292 16.375 9 C15.92125 8.34 15.4675 7.68 15 7 C15.33 8.32 15.66 9.64 16 11 C13.14278723 11.54712585 11.75887931 11.75469343 9 11 C5.60922962 8.34425421 2.68210103 5.3693514 0 2 C0 1.34 0 0.68 0 0 Z " fill="#262626" transform="translate(98,124)"/>
<path d="M0 0 C1.34771484 0.01740234 1.34771484 0.01740234 2.72265625 0.03515625 C3.61855469 0.04417969 4.51445312 0.05320312 5.4375 0.0625 C6.59958984 0.07990234 6.59958984 0.07990234 7.78515625 0.09765625 C9.21137087 0.09765625 10.63781241 0.05816789 12.0625 -0.0078125 C12.94035156 -0.03488281 13.81820312 -0.06195313 14.72265625 -0.08984375 C15.59792969 -0.12464844 16.47320312 -0.15945312 17.375 -0.1953125 C20.22144974 0.1506903 21.03325756 0.89477374 22.78515625 3.09765625 C22.78515625 2.10765625 22.78515625 1.11765625 22.78515625 0.09765625 C26.78275835 -0.3654091 28.31991118 -0.26340014 31.55859375 2.25 C32.41710937 3.16910156 33.275625 4.08820313 34.16015625 5.03515625 C35.03414062 5.95167969 35.908125 6.86820312 36.80859375 7.8125 C38.78515625 10.09765625 38.78515625 10.09765625 38.78515625 11.09765625 C24.78515625 11.09765625 10.78515625 11.09765625 -3.21484375 11.09765625 C-3.24172526 9.45191059 -3.26118498 7.80604212 -3.27734375 6.16015625 C-3.28894531 5.24363281 -3.30054688 4.32710938 -3.3125 3.3828125 C-3.18241932 0.3389245 -3.04177756 0.13411718 0 0 Z " fill="#4D4A49" transform="translate(144.21484375,85.90234375)"/>
<path d="M0 0 C0 0.99 0 1.98 0 3 C0.66 2.01 1.32 1.02 2 0 C4.3125 -0.29296875 4.3125 -0.29296875 7 -0.1875 C7.886875 -0.16042969 8.77375 -0.13335937 9.6875 -0.10546875 C10.450625 -0.07066406 11.21375 -0.03585938 12 0 C13.44926613 0 14.89855259 -0.01345586 16.34765625 -0.03515625 C17.24355469 -0.04417969 18.13945312 -0.05320312 19.0625 -0.0625 C19.96097656 -0.07410156 20.85945313 -0.08570312 21.78515625 -0.09765625 C24 0 24 0 25 1 C25.07205511 2.68608966 25.08386068 4.37500659 25.0625 6.0625 C25.05347656 6.98160156 25.04445312 7.90070313 25.03515625 8.84765625 C25.02355469 9.55792969 25.01195312 10.26820312 25 11 C15 11 5 11 -5 11 C-5 10.34 -5 9.68 -5 9 C-5.33 9.66 -5.66 10.32 -6 11 C-9.63 11 -13.26 11 -17 11 C-15.53370872 9.26711031 -14.06434874 7.53665252 -12.57421875 5.82421875 C-11.37162828 4.43064617 -10.20788029 3.0034623 -9.0625 1.5625 C-6.07794184 -0.69852891 -3.63074202 -0.27928785 0 0 Z " fill="#615F5E" transform="translate(115,86)"/>
<path d="M0 0 C3 1 3 1 4.6875 4.0625 C5.120625 5.031875 5.55375 6.00125 6 7 C6.969375 6.175 7.93875 5.35 8.9375 4.5 C12.61409591 1.88238303 15.44197449 1.31083982 19.9140625 1.5703125 C23.09322745 2.22519667 24.83906139 3.6364734 27 6 C27.495 7.485 27.495 7.485 28 9 C24.28400809 9.20086443 23.22791555 9.1519437 20 7 C16.21979011 7.1350075 13.863899 7.26699479 10.9375 9.75 C9.72312809 12.02447221 9.72312809 12.02447221 10.6875 14.625 C11.90821846 17.09279945 11.90821846 17.09279945 14 19 C17.5 19.33333333 17.5 19.33333333 21 19 C21.66 18.34 22.32 17.68 23 17 C25.625 16.875 25.625 16.875 28 17 C26.70268494 19.89401051 25.62285333 22.16400267 23 24 C18.26127547 25.18468113 16.00963508 25.34815003 11.375 23.75 C6.52709252 20.62950783 4.37871714 15.05368477 2 10 C0.11143332 12.83285002 -1.50546052 15.6948727 -3.125 18.6875 C-3.66382813 19.68136719 -4.20265625 20.67523438 -4.7578125 21.69921875 C-5.37269531 22.83810547 -5.37269531 22.83810547 -6 24 C-7.65 24 -9.3 24 -11 24 C-9.54304237 20.74938156 -8.08419362 17.49961525 -6.625 14.25 C-6.2125 13.32960937 -5.8 12.40921875 -5.375 11.4609375 C-4.77558594 10.12675781 -4.77558594 10.12675781 -4.1640625 8.765625 C-3.79748535 7.94868164 -3.4309082 7.13173828 -3.05322266 6.29003906 C-2.07795543 4.16949975 -1.05708873 2.08075174 0 0 Z " fill="#5F5E5C" transform="translate(132,151)"/>
<path d="M0 0 C3.65185772 3.87900677 5.03412386 7.11900006 5.1328125 12.546875 C4.6953125 15.984375 4.6953125 15.984375 4.1328125 18.546875 C3.1428125 18.546875 2.1528125 18.546875 1.1328125 18.546875 C1.1328125 17.556875 1.1328125 16.566875 1.1328125 15.546875 C0.4728125 15.546875 -0.1871875 15.546875 -0.8671875 15.546875 C-2.4921875 14.296875 -2.4921875 14.296875 -3.8671875 12.546875 C-3.8671875 11.226875 -3.8671875 9.906875 -3.8671875 8.546875 C-9.52353095 8.25926432 -12.03429741 8.49452336 -16.8671875 11.546875 C-20.1796875 11.734375 -20.1796875 11.734375 -22.8671875 11.546875 C-22.8671875 12.206875 -22.8671875 12.866875 -22.8671875 13.546875 C-27.25608075 12.88189117 -30.848336 11.35929823 -34.8671875 9.546875 C-34.8671875 9.216875 -34.8671875 8.886875 -34.8671875 8.546875 C-27.9371875 9.041875 -27.9371875 9.041875 -20.8671875 9.546875 C-23.3421875 8.556875 -23.3421875 8.556875 -25.8671875 7.546875 C-25.62563285 4.28588726 -24.64003526 3.31418246 -22.3046875 0.921875 C-15.78240807 -4.09406847 -6.78422581 -5.27977406 0 0 Z " fill="#585656" transform="translate(243.8671875,86.453125)"/>
<path d="M0 0 C1.95178403 1.70954133 3.82373804 3.45314602 5.640625 5.3046875 C3.58828815 7.552485 2.63395239 8.3069117 -0.359375 9.3046875 C-0.029375 9.9646875 0.300625 10.6246875 0.640625 11.3046875 C-1.671875 11.4921875 -1.671875 11.4921875 -4.359375 11.3046875 C-4.7925 10.8096875 -5.225625 10.3146875 -5.671875 9.8046875 C-8.05862077 7.6831357 -10.24761369 8.03042712 -13.32421875 8.1015625 C-13.99582031 8.16859375 -14.66742188 8.235625 -15.359375 8.3046875 C-16.06707031 8.37042969 -16.77476563 8.43617187 -17.50390625 8.50390625 C-19.60372451 9.16447414 -19.60372451 9.16447414 -20.40625 11.58984375 C-20.63828125 12.50636719 -20.8703125 13.42289063 -21.109375 14.3671875 C-21.35171875 15.28628906 -21.5940625 16.20539063 -21.84375 17.15234375 C-22.01390625 17.86261719 -22.1840625 18.57289062 -22.359375 19.3046875 C-23.349375 18.6446875 -24.339375 17.9846875 -25.359375 17.3046875 C-26.2979286 12.12995953 -25.94988345 7.52944576 -23.671875 2.8046875 C-17.0908767 -4.30990526 -8.0594949 -5.79109402 0 0 Z " fill="#696766" transform="translate(58.359375,86.6953125)"/>
<path d="M0 0 C1.42819399 3.94956413 2.85224928 7.90058797 4.27246094 11.85302734 C4.75634643 13.19783932 5.24136744 14.54224328 5.72753906 15.88623047 C6.42550666 17.81632453 7.11939898 19.74784137 7.8125 21.6796875 C8.23144531 22.84226074 8.65039062 24.00483398 9.08203125 25.20263672 C10 28 10 28 10 30 C11.32 30 12.64 30 14 30 C14 30.66 14 31.32 14 32 C9.71 32 5.42 32 1 32 C1 31.34 1 30.68 1 30 C1.99 30 2.98 30 4 30 C2.68 26.7 1.36 23.4 0 20 C-2.64 20 -5.28 20 -8 20 C-8.66 22.97 -9.32 25.94 -10 29 C-9.34 29.33 -8.68 29.66 -8 30 C-8 30.66 -8 31.32 -8 32 C-11.3 32 -14.6 32 -18 32 C-18 31.34 -18 30.68 -18 30 C-17.01 29.67 -16.02 29.34 -15 29 C-13.57712302 26.2357387 -13.57712302 26.2357387 -12.37109375 22.8125 C-12.13592545 22.19479736 -11.90075714 21.57709473 -11.65846252 20.94067383 C-10.90730539 18.96434034 -10.17133682 16.98282373 -9.4375 15 C-8.69862053 13.01781604 -7.95649159 11.03707813 -7.20582581 9.05932617 C-6.52556966 7.26523889 -5.85711642 5.46668975 -5.18920898 3.66796875 C-3.82960146 0.61771396 -3.31811241 0 0 0 Z M-4 9 C-5.25664978 11.90600261 -6 13.79604584 -6 17 C-3.03 17.495 -3.03 17.495 0 18 C-0.66 15.03 -1.32 12.06 -2 9 C-2.66 9 -3.32 9 -4 9 Z " fill="#2F2F2F" transform="translate(73,219)"/>
<path d="M0 0 C0.495 15.345 0.495 15.345 1 31 C1.99 31.33 2.98 31.66 4 32 C3.67 32.66 3.34 33.32 3 34 C-0.38035912 34.62599243 -3.56169885 35 -7 35 C-7.94875 35.0825 -8.8975 35.165 -9.875 35.25 C-13.77818118 34.93774551 -15.23095783 33.68992668 -18 31 C-19.60306924 27.79386153 -19.48740461 24.47860003 -19 21 C-16.90637823 17.56047852 -14.88092169 15.21971825 -11 14 C-8.66796188 13.9222654 -6.33160941 13.91032272 -4 14 C-4.66 10.04 -5.32 6.08 -6 2 C-2 0 -2 0 0 0 Z M-12.8125 18 C-14.70898604 21.19408176 -14.79885071 24.45509998 -14 28 C-11.66169042 30.5404226 -11.66169042 30.5404226 -9 32 C-7.35 31.34 -5.7 30.68 -4 30 C-3.94608007 28.20866022 -3.90724429 26.41686101 -3.875 24.625 C-3.85179687 23.62726563 -3.82859375 22.62953125 -3.8046875 21.6015625 C-3.72783152 18.83737827 -3.72783152 18.83737827 -6 17 C-8.74026253 16.64868429 -10.37613976 16.65580125 -12.8125 18 Z " fill="#272727" transform="translate(184,217)"/>
<path d="M0 0 C1.26972656 0.01160156 2.53945312 0.02320312 3.84765625 0.03515625 C5.11480469 0.04417969 6.38195312 0.05320312 7.6875 0.0625 C8.75097656 0.07410156 9.81445312 0.08570312 10.91015625 0.09765625 C11.57015625 0.09765625 12.23015625 0.09765625 12.91015625 0.09765625 C17.24348958 0.09765625 21.57682292 0.09765625 25.91015625 0.09765625 C25.31272585 1.7903757 24.62589152 3.45146512 23.91015625 5.09765625 C23.44996094 6.18175781 22.98976562 7.26585937 22.515625 8.3828125 C19.47319091 11.55296496 18.74771703 11.53183498 14.5234375 11.71875 C12.42250742 11.6882248 10.32184896 11.62586999 8.22265625 11.53515625 C7.15208984 11.51646484 6.08152344 11.49777344 4.97851562 11.47851562 C-2.89368405 11.29381595 -2.89368405 11.29381595 -4.08984375 10.09765625 C-4.18774945 8.60027501 -4.21959239 7.09822733 -4.21484375 5.59765625 C-4.21742188 4.78296875 -4.22 3.96828125 -4.22265625 3.12890625 C-4.00397366 -0.21565097 -3.42883009 0.1083701 0 0 Z " fill="#353535" transform="translate(145.08984375,123.90234375)"/>
<path d="M0 0 C2.08643221 0.09135508 4.17012639 0.24863255 6.25 0.4375 C10.18593865 0.78924112 14.04754306 1.06686487 18 1 C18 1.66 18 2.32 18 3 C16.3203125 4.2890625 16.3203125 4.2890625 14.125 5.625 C13.40570313 6.07101563 12.68640625 6.51703125 11.9453125 6.9765625 C10 8 10 8 8 8 C7.67 8.99 7.34 9.98 7 11 C7.66 11.66 8.32 12.32 9 13 C8.01 13.66 7.02 14.32 6 15 C6 15.66 6 16.32 6 17 C7.32 17 8.64 17 10 17 C9.74438677 19.3431213 9.40729228 21.67843403 9 24 C8.34 24.33 7.68 24.66 7 25 C4.48916886 23.74458443 4.12874554 22.49936512 3 20 C2.01 20 1.02 20 0 20 C-0.32055507 23.78374318 -0.32055507 23.78374318 1.0625 25.9375 C2.32808952 28.72179695 2.04684248 30.15857041 1 33 C-1.0625 34.3125 -1.0625 34.3125 -3 35 C-3.50026075 33.03230773 -3.99739858 31.06372415 -4.47265625 29.08984375 C-4.87382693 27.50001922 -5.35649446 25.93051662 -5.875 24.375 C-6 22 -6 22 -4.05078125 19.33984375 C-1.61449179 15.37217234 -1.4439142 12.80512313 -1.3125 8.1875 C-1.09050881 1.09050881 -1.09050881 1.09050881 0 0 Z M2 5 C2 6.65 2 8.3 2 10 C2.99 10.495 2.99 10.495 4 11 C4.99 10.34 5.98 9.68 7 9 C7 8.34 7 7.68 7 7 C4.525 6.01 4.525 6.01 2 5 Z " fill="#61605F" transform="translate(210,119)"/>
<path d="M0 0 C0 2.31 0 4.62 0 7 C-0.66 7 -1.32 7 -2 7 C-2.28875 6.360625 -2.5775 5.72125 -2.875 5.0625 C-3.82823451 2.84793921 -3.82823451 2.84793921 -6 2 C-10.59876684 1.44887077 -13.97787887 1.38246849 -18 3.8125 C-21.13928852 7.24609681 -21.28139406 10.3772176 -21.22265625 14.93359375 C-20.88205963 18.0945694 -19.70277003 20.35124663 -18 23 C-13.79986125 25.8000925 -9.93688291 25.83497363 -5 25 C-2.4595774 22.66169042 -2.4595774 22.66169042 -1 20 C-0.34 20 0.32 20 1 20 C0.25 25.75 0.25 25.75 -2 28 C-7.97406416 30.29771698 -14.48357027 29.36642975 -20.23828125 26.9921875 C-23.56163783 25.12049665 -25.33314122 22.33371756 -27 19 C-27.76250806 12.16242772 -27.16994994 7.52236613 -23 2 C-16.46729875 -2.89952594 -7.31357291 -3.77474731 0 0 Z " fill="#252525" transform="translate(135,223)"/>
<path d="M0 0 C13.53 0 27.06 0 41 0 C41 6 41 6 40 8 C39.16597656 7.86722656 38.33195312 7.73445313 37.47265625 7.59765625 C35.12910594 7.22988261 32.78392987 6.8723678 30.4375 6.5234375 C28.49480519 6.22761806 26.55409296 5.91345883 24.625 5.5390625 C18.4643511 4.48895189 13.0614288 5.8456442 7.0390625 7.30859375 C4 8 4 8 1 8 C0.67 5.36 0.34 2.72 0 0 Z " fill="#131313" transform="translate(120,48)"/>
<path d="M0 0 C3.33014331 2.01065256 5.36952397 3.26268827 6.703125 6.9375 C7.30609366 10.39801578 7.19108873 12.52227817 5.875 15.8125 C2.95225147 19.22237329 0.50575866 20.74370065 -3.9375 21.5 C-7.98664415 20.83891524 -10.57828644 19.2524632 -13 16 C-14.06594294 13.25336396 -14.34911709 10.92457106 -14 8 C-12.39182692 4.78365384 -11.02289934 2.75012618 -8.125 0.625 C-5.14483554 -0.25151896 -3.10161374 -0.43422592 0 0 Z M-7.875 5.0625 C-9.31481585 8.82201915 -8.93415349 11.11967012 -8 15 C-6.35862883 18.2243063 -6.35862883 18.2243063 -3.5625 18.5 C-0.83673931 18.23300671 -0.83673931 18.23300671 0.875 15.9375 C2.31481585 12.17798085 1.93415349 9.88032988 1 6 C-0.64137117 2.7756937 -0.64137117 2.7756937 -3.4375 2.5 C-6.16326069 2.76699329 -6.16326069 2.76699329 -7.875 5.0625 Z " fill="#404040" transform="translate(154,231)"/>
<path d="M0 0 C0.495 1.485 0.495 1.485 1 3 C-5.01620871 9.73505718 -10.97107311 16.29098472 -18 22 C-18.99 22.804375 -19.98 23.60875 -21 24.4375 C-21.99 25.2109375 -21.99 25.2109375 -23 26 C-26.97814827 24.64349361 -29.54763545 22.9082903 -32.625 20.0625 C-33.4809375 19.27101562 -34.336875 18.47953125 -35.21875 17.6640625 C-39.89204193 13.18767893 -44.46328339 8.61434104 -49 4 C-48.67 3.01 -48.34 2.02 -48 1 C-47.34 1 -46.68 1 -46 1 C-46 1.66 -46 2.32 -46 3 C-45.01 3.33 -44.02 3.66 -43 4 C-41.52734375 5.53125 -41.52734375 5.53125 -39.9375 7.5 C-37.05557471 10.87859752 -34.04516759 14.01578232 -30.8125 17.0625 C-29.99394531 17.83722656 -29.17539063 18.61195313 -28.33203125 19.41015625 C-26.20266888 21.16722228 -26.20266888 21.16722228 -24.05859375 21.0625 C-21.02567493 19.49712254 -18.69611373 17.27479393 -16.25 14.9375 C-15.7235791 14.44523926 -15.1971582 13.95297852 -14.65478516 13.44580078 C-10.85475366 9.87305222 -7.15000494 6.20992072 -3.5234375 2.4609375 C-2 1 -2 1 0 0 Z " fill="#383838" transform="translate(165,177)"/>
<path d="M0 0 C2.05756589 3.6809665 3.17380549 7.60821305 4.375 11.625 C9.26355991 27.42945167 16.4773885 40.21045933 27 53 C26.01 53.99 25.02 54.98 24 56 C10.91225923 39.85487716 2.15307901 23.63033555 -2 3 C-1.34 3 -0.68 3 0 3 C0 2.01 0 1.02 0 0 Z " fill="#404040" transform="translate(91,124)"/>
<path d="M0 0 C9.02341169 -0.81373452 15.79163295 1.34603693 24 5 C24 5.99 24 6.98 24 8 C22.02 9.65 20.04 11.3 18 13 C11.73 10.69 5.46 8.38 -1 6 C-0.67 4.02 -0.34 2.04 0 0 Z " fill="#282828" transform="translate(191,62)"/>
<path d="M0 0 C1.39456452 0.00667256 2.78911118 0.01863093 4.18359375 0.03515625 C4.89451172 0.03966797 5.60542969 0.04417969 6.33789062 0.04882812 C8.09899388 0.06064761 9.86005411 0.07858362 11.62109375 0.09765625 C11.62109375 3.72765625 11.62109375 7.35765625 11.62109375 11.09765625 C8.7547558 12.53082523 6.24873874 12.22965986 3.05859375 12.22265625 C1.29322266 12.22652344 1.29322266 12.22652344 -0.5078125 12.23046875 C-3.37890625 12.09765625 -3.37890625 12.09765625 -4.37890625 11.09765625 C-4.47714562 9.43336574 -4.50864256 7.76483694 -4.50390625 6.09765625 C-4.50648438 5.19015625 -4.5090625 4.28265625 -4.51171875 3.34765625 C-4.29609981 -0.30518229 -3.78610048 0.10942487 0 0 Z " fill="#403F40" transform="translate(145.37890625,110.90234375)"/>
<path d="M0 0 C1.27875 0.00257812 2.5575 0.00515625 3.875 0.0078125 C5.15375 0.00523438 6.4325 0.00265625 7.75 0 C10.875 0.1328125 10.875 0.1328125 11.875 1.1328125 C11.97323937 2.79710301 12.00473631 4.46563181 12 6.1328125 C12.00386719 7.4940625 12.00386719 7.4940625 12.0078125 8.8828125 C11.875 11.1328125 11.875 11.1328125 10.875 12.1328125 C8.7329034 12.28436219 6.58476538 12.35458995 4.4375 12.3828125 C3.26316406 12.40859375 2.08882812 12.434375 0.87890625 12.4609375 C-0.11238281 12.35265625 -1.10367188 12.244375 -2.125 12.1328125 C-4.81961986 8.09088272 -4.35700889 5.9276629 -4.125 1.1328125 C-3.125 0.1328125 -3.125 0.1328125 0 0 Z " fill="#3D3C3D" transform="translate(128.125,110.8671875)"/>
<path d="M0 0 C4.95 0 9.9 0 15 0 C15 7.875 15 7.875 13 12 C10.85423363 12.02685938 8.70837355 12.04633088 6.5625 12.0625 C5.36753906 12.07410156 4.17257813 12.08570312 2.94140625 12.09765625 C0 12 0 12 -1 11 C-1.23529412 3.70588235 -1.23529412 3.70588235 0 0 Z " fill="#403E3F" transform="translate(159,111)"/>
<path d="M0 0 C0.66 0 1.32 0 2 0 C1.9071875 0.86882812 1.814375 1.73765625 1.71875 2.6328125 C1.07216198 9.26838258 1.07216198 9.26838258 3.640625 15.09375 C5.69789206 16.58717349 7.76182025 17.79922473 10 19 C13.86374219 21.60112644 14.9176821 23.40014892 16 28 C16.125 31.375 16.125 31.375 16 34 C14.125 33.75 14.125 33.75 12 33 C10.6875 31.125 10.6875 31.125 10 29 C10.33 28.01 10.66 27.02 11 26 C10.34 26 9.68 26 9 26 C8.36771484 24.85724609 8.36771484 24.85724609 7.72265625 23.69140625 C5.65008089 20.45330098 3.87429114 19.58038684 0.4375 17.9375 C-3.38607333 16.10441903 -5.51823144 15.0770555 -7 11 C-5.625 9.5 -5.625 9.5 -4 8 C-3.34 8 -2.68 8 -2 8 C-1.7834375 6.576875 -1.7834375 6.576875 -1.5625 5.125 C-1 2 -1 2 0 0 Z " fill="#484847" transform="translate(37,165)"/>
<path d="M0 0 C1.27875 0.00257812 2.5575 0.00515625 3.875 0.0078125 C5.15375 0.00523438 6.4325 0.00265625 7.75 0 C10.875 0.1328125 10.875 0.1328125 11.875 1.1328125 C11.94726502 2.98568752 11.9588122 4.84115128 11.9375 6.6953125 C11.92847656 7.70722656 11.91945313 8.71914062 11.91015625 9.76171875 C11.89855469 10.54417969 11.88695313 11.32664062 11.875 12.1328125 C9.75027424 12.18667879 7.62516348 12.22554321 5.5 12.2578125 C3.72496094 12.29261719 3.72496094 12.29261719 1.9140625 12.328125 C-1.125 12.1328125 -1.125 12.1328125 -3.125 10.1328125 C-3.57421875 8.00390625 -3.57421875 8.00390625 -3.8125 5.5703125 C-3.89886719 4.76464844 -3.98523438 3.95898438 -4.07421875 3.12890625 C-4.09097656 2.47019531 -4.10773438 1.81148438 -4.125 1.1328125 C-3.125 0.1328125 -3.125 0.1328125 0 0 Z " fill="#3E3D3D" transform="translate(111.125,110.8671875)"/>
<path d="M0 0 C2 2 2 2 2 7 C-1.96 7 -5.92 7 -10 7 C-9.34 9.31 -8.68 11.62 -8 14 C-2.94990405 14.93786082 -2.94990405 14.93786082 2 14 C1.66855019 16.48587357 1.38738909 17.67459316 -0.5625 19.3125 C-4.19360868 20.33665886 -7.38755773 20.04530244 -11 19 C-13.68022478 16.75206954 -13.99370221 15.02429149 -14.875 11.625 C-15.0212283 7.38437942 -14.37823324 5.48807541 -12 2 C-7.9584977 -1.48018254 -5.06622429 -1.24265879 0 0 Z M-8 2 C-8.99 3.485 -8.99 3.485 -10 5 C-7.36 5 -4.72 5 -2 5 C-2.33 4.01 -2.66 3.02 -3 2 C-5.41619823 1.74969023 -5.41619823 1.74969023 -8 2 Z " fill="#333333" transform="translate(205,232)"/>
<path d="M0 0 C2.47923801 -0.02685095 4.9581884 -0.04676547 7.4375 -0.0625 C8.14455078 -0.07087891 8.85160156 -0.07925781 9.58007812 -0.08789062 C11.38693559 -0.09653588 13.19387603 -0.05220011 15 0 C16 1 16 1 16.09765625 3.28515625 C16.08605469 4.20167969 16.07445312 5.11820312 16.0625 6.0625 C16.05347656 6.98160156 16.04445312 7.90070313 16.03515625 8.84765625 C16.02355469 9.55792969 16.01195312 10.26820312 16 11 C13.52076199 11.02685095 11.0418116 11.04676547 8.5625 11.0625 C7.85544922 11.07087891 7.14839844 11.07925781 6.41992188 11.08789062 C4.61306441 11.09653588 2.80612397 11.05220011 1 11 C0 10 0 10 -0.09765625 7.71484375 C-0.08605469 6.79832031 -0.07445312 5.88179688 -0.0625 4.9375 C-0.05347656 4.01839844 -0.04445312 3.09929687 -0.03515625 2.15234375 C-0.02355469 1.44207031 -0.01195312 0.73179688 0 0 Z " fill="#41403F" transform="translate(141,99)"/>
<path d="M0 0 C1.3303125 0.5259375 1.3303125 0.5259375 2.6875 1.0625 C6.06203126 2.01755602 7.69686152 1.97151132 11 1 C13.10396411 6.93317878 14.75971762 12.82777121 16 19 C14.68 19 13.36 19 12 19 C11.67 18.34 11.34 17.68 11 17 C10.67 17.66 10.34 18.32 10 19 C8.203125 18.9609375 8.203125 18.9609375 6 18 C4.70631871 15.51352083 3.70154274 13.23688773 2.75 10.625 C2.481875 9.93921875 2.21375 9.2534375 1.9375 8.546875 C0.8022095 5.56963359 0 3.21028808 0 0 Z " fill="#474747" transform="translate(112,27)"/>
<path d="M0 0 C4.95 0 9.9 0 15 0 C15.09765625 7.71484375 15.09765625 7.71484375 15 10 C14 11 14 11 10.62109375 11.09765625 C9.22652923 11.09098369 7.83198257 11.07902532 6.4375 11.0625 C5.37112305 11.05573242 5.37112305 11.05573242 4.28320312 11.04882812 C2.52209987 11.03700864 0.76103964 11.01907263 -1 11 C-1.125 3.375 -1.125 3.375 0 0 Z " fill="#403E3D" transform="translate(125,99)"/>
<path d="M0 0 C1.98046875 1.21923828 1.98046875 1.21923828 4 3 C4.42578125 5.08935547 4.42578125 5.08935547 4.3125 7.4921875 C4.27640625 8.37874023 4.2403125 9.26529297 4.203125 10.17871094 C3.86779222 14.83628978 3.48274637 19.48019712 3 24.125 C2.90460938 25.08148438 2.80921875 26.03796875 2.7109375 27.0234375 C2.4783375 29.34943754 2.24130321 31.67488959 2 34 C1.01 34 0.02 34 -1 34 C-1.34153092 30.70913156 -1.67166646 27.41720923 -2 24.125 C-2.09539062 23.2071875 -2.19078125 22.289375 -2.2890625 21.34375 C-2.74375288 16.73189042 -3.10853883 12.12504071 -3.25 7.4921875 C-3.27578125 6.69925293 -3.3015625 5.90631836 -3.328125 5.08935547 C-2.92081005 2.49575331 -1.9935919 1.63749966 0 0 Z " fill="#121212" transform="translate(140,12)"/>
<path d="M0 0 C4.62 0 9.24 0 14 0 C16 5 16 5 16 11 C11.05 11 6.1 11 1 11 C-0.71466036 7.57067929 -0.05404056 3.78283935 0 0 Z " fill="#403F3E" transform="translate(158,99)"/>
<path d="M0 0 C1.93166016 0.01740234 1.93166016 0.01740234 3.90234375 0.03515625 C5.19269531 0.04417969 6.48304687 0.05320312 7.8125 0.0625 C8.81152344 0.07410156 9.81054688 0.08570312 10.83984375 0.09765625 C10.86672526 1.74340191 10.88618498 3.38927038 10.90234375 5.03515625 C10.91394531 5.95167969 10.92554687 6.86820312 10.9375 7.8125 C10.83984375 10.09765625 10.83984375 10.09765625 9.83984375 11.09765625 C7.30934973 11.17079192 4.80679538 11.19013152 2.27734375 11.16015625 C1.2109668 11.15338867 1.2109668 11.15338867 0.12304688 11.14648438 C-1.63805638 11.13466489 -3.39911661 11.11672888 -5.16015625 11.09765625 C-5.01972748 9.45135297 -4.87266296 7.80561446 -4.72265625 6.16015625 C-4.64144531 5.24363281 -4.56023437 4.32710938 -4.4765625 3.3828125 C-3.985646 -0.16269559 -3.70665868 0.11454446 0 0 Z " fill="#403F3E" transform="translate(112.16015625,98.90234375)"/>
<path d="M0 0 C0.144375 1.2375 0.28875 2.475 0.4375 3.75 C0.78688502 6.56504499 1.20379366 9.2701497 2 12 C1.01 12 0.02 12 -1 12 C-1.33 12.33 -1.66 12.66 -2 13 C-1.34 13.66 -0.68 14.32 0 15 C-1.32 15.33 -2.64 15.66 -4 16 C-4.66 15.01 -5.32 14.02 -6 13 C-6.515625 13.165 -7.03125 13.33 -7.5625 13.5 C-11.50749785 14.30923033 -15.43170579 15.01180272 -18.9375 12.75 C-20 11 -20 11 -20 7 C-19.34 7 -18.68 7 -18 7 C-17.01 8.485 -17.01 8.485 -16 10 C-12.93443402 10.73343428 -12.93443402 10.73343428 -10 11 C-10 10.01 -10 9.02 -10 8 C-10.66 8 -11.32 8 -12 8 C-12 7.01 -12 6.02 -12 5 C-10.68 5 -9.36 5 -8 5 C-8 4.34 -8 3.68 -8 3 C-7.34 3 -6.68 3 -6 3 C-6 2.34 -6 1.68 -6 1 C-4 0 -4 0 0 0 Z " fill="#373737" transform="translate(187,34)"/>
<path d="M0 0 C1.67542976 0.28604898 3.34385343 0.61781233 5 1 C5 1.66 5 2.32 5 3 C5.66 3 6.32 3 7 3 C7 3.66 7 4.32 7 5 C8.32 5 9.64 5 11 5 C11 5.99 11 6.98 11 8 C10.34 8 9.68 8 9 8 C9 8.99 9 9.98 9 11 C13.7517398 10.56802365 15.92000054 9.67230705 19 6 C19.125 8.875 19.125 8.875 19 12 C17 14 17 14 13.125 14.1875 C10.75523562 14.14464712 8.97099224 13.99137607 6.6875 13.3125 C5.8521875 13.1578125 5.8521875 13.1578125 5 13 C3.22809091 14.35444301 3.22809091 14.35444301 2 16 C1.01 15.34 0.02 14.68 -1 14 C-0.34 13.34 0.32 12.68 1 12 C0.01 12.33 -0.98 12.66 -2 13 C-2.5625 11.0625 -2.5625 11.0625 -3 9 C-2.67 8.67 -2.34 8.34 -2 8 C-1.835 6.845 -1.67 5.69 -1.5 4.5 C-1 1 -1 1 0 0 Z " fill="#303030" transform="translate(95,34)"/>
<path d="M0 0 C1.33417969 0.01740234 1.33417969 0.01740234 2.6953125 0.03515625 C4.02175781 0.04869141 4.02175781 0.04869141 5.375 0.0625 C6.18195313 0.07410156 6.98890625 0.08570312 7.8203125 0.09765625 C8.8103125 0.09765625 9.8003125 0.09765625 10.8203125 0.09765625 C11.18288108 1.55392345 11.53511043 3.0127681 11.8828125 4.47265625 C12.08003906 5.28476563 12.27726563 6.096875 12.48046875 6.93359375 C12.8203125 9.09765625 12.8203125 9.09765625 11.8203125 11.09765625 C6.8703125 11.09765625 1.9203125 11.09765625 -3.1796875 11.09765625 C-3.27734375 3.3828125 -3.27734375 3.3828125 -3.1796875 1.09765625 C-2.1796875 0.09765625 -2.1796875 0.09765625 0 0 Z " fill="#5F5D5C" transform="translate(144.1796875,85.90234375)"/>
<path d="M0 0 C1.79244141 0.01740234 1.79244141 0.01740234 3.62109375 0.03515625 C5.41740234 0.04869141 5.41740234 0.04869141 7.25 0.0625 C8.17683594 0.07410156 9.10367188 0.08570312 10.05859375 0.09765625 C9.55660177 3.82673956 9.01652352 7.45913311 8.05859375 11.09765625 C6.24617323 11.12452904 4.43364142 11.1439934 2.62109375 11.16015625 C1.61175781 11.17175781 0.60242188 11.18335938 -0.4375 11.1953125 C-2.94140625 11.09765625 -2.94140625 11.09765625 -3.94140625 10.09765625 C-4.03931195 8.60027501 -4.07115489 7.09822733 -4.06640625 5.59765625 C-4.06898438 4.78296875 -4.0715625 3.96828125 -4.07421875 3.12890625 C-3.8603132 -0.1425904 -3.33729602 0.1108 0 0 Z " fill="#1F1F1E" transform="translate(144.94140625,123.90234375)"/>
<path d="M0 0 C4.62 0 9.24 0 14 0 C14 3.63 14 7.26 14 11 C10.37 11 6.74 11 3 11 C0 3.375 0 3.375 0 0 Z " fill="#1D1D1D" transform="translate(126,124)"/>
<path d="M0 0 C0.9075 0.00257812 1.815 0.00515625 2.75 0.0078125 C4.11125 0.00394531 4.11125 0.00394531 5.5 0 C7.75 0.1328125 7.75 0.1328125 8.75 1.1328125 C8.89257189 4.46899481 8.79228157 7.79256856 8.75 11.1328125 C4.13 11.1328125 -0.49 11.1328125 -5.25 11.1328125 C-3.1717229 0.18721975 -3.1717229 0.18721975 0 0 Z " fill="#4E4B4A" transform="translate(131.25,85.8671875)"/>
<path d="M0 0 C3.63 0 7.26 0 11 0 C12.40907283 2.81814566 11.50872691 4.17277204 10.5625 7.125 C10.27503906 8.03507812 9.98757812 8.94515625 9.69140625 9.8828125 C9.46324219 10.58148438 9.23507813 11.28015625 9 12 C5.7 12 2.4 12 -1 12 C-2.24142712 7.03429151 -1.37261666 4.84452938 0 0 Z " fill="#444343" transform="translate(176,111)"/>
<path d="M0 0 C3.63 0 7.26 0 11 0 C12.41404314 3.80024093 13.34892324 6.92922882 13 11 C12 12 12 12 9.93359375 12.09765625 C9.10988281 12.08605469 8.28617188 12.07445313 7.4375 12.0625 C6.61121094 12.05347656 5.78492187 12.04445313 4.93359375 12.03515625 C4.29550781 12.02355469 3.65742187 12.01195313 3 12 C0.7981069 7.32097716 0 5.37483542 0 0 Z " fill="#434142" transform="translate(94,111)"/>
<path d="M0 0 C0 0.99 0 1.98 0 3 C1.98 3 3.96 3 6 3 C6 3.99 6 4.98 6 6 C4.02 6 2.04 6 0 6 C0.33 9.96 0.66 13.92 1 18 C2.65 18.33 4.3 18.66 6 19 C5.67 19.99 5.34 20.98 5 22 C1.625 22.625 1.625 22.625 -2 23 C-4 21 -4 21 -4.1953125 17.5234375 C-4.18201493 16.14049032 -4.15816232 14.75761346 -4.125 13.375 C-4.11597656 12.66859375 -4.10695313 11.9621875 -4.09765625 11.234375 C-4.07407603 9.48943902 -4.03820461 7.74467705 -4 6 C-4.99 6 -5.98 6 -7 6 C-5.81636731 2.44910192 -3.99368042 0 0 0 Z " fill="#242424" transform="translate(96,229)"/>
<path d="M0 0 C2.66916589 0.61009506 4.55724946 0.15756263 7.1875 -0.5 C7.5175 1.15 7.8475 2.8 8.1875 4.5 C6.2075 4.5 4.2275 4.5 2.1875 4.5 C1.8575 8.79 1.5275 13.08 1.1875 17.5 C2.5075 17.5 3.8275 17.5 5.1875 17.5 C5.1875 18.16 5.1875 18.82 5.1875 19.5 C1.5575 19.5 -2.0725 19.5 -5.8125 19.5 C-5.8125 18.84 -5.8125 18.18 -5.8125 17.5 C-5.1525 17.17 -4.4925 16.84 -3.8125 16.5 C-3.8125 15.68015625 -3.8125 14.8603125 -3.8125 14.015625 C-3.8125 9.51041667 -3.8125 5.00520833 -3.8125 0.5 C-1.8125 -0.5 -1.8125 -0.5 0 0 Z " fill="#202020" transform="translate(217.8125,231.5)"/>
<path d="M0 0 C-0.99 1.485 -0.99 1.485 -2 3 C-5.625 3.6875 -5.625 3.6875 -9 4 C-9.48230236 7.44980157 -9.7114192 10.5736796 -9 14 C-6.63543564 16.35937891 -4.05872094 17.7027746 -1 19 C-3 21 -3 21 -5.8125 21.375 C-9.70041449 20.9175983 -11.22565497 19.69507803 -14 17 C-15.60306924 13.79386153 -15.48740461 10.47860003 -15 7 C-11.049419 0.50975979 -7.33025404 -0.28193285 0 0 Z " fill="#313131" transform="translate(180,231)"/>
<path d="M0 0 C1.32286246 4.96073422 1.08893197 9.91111512 1 15 C0.01 15 -0.98 15 -2 15 C-2 14.34 -2 13.68 -2 13 C-2.66 13 -3.32 13 -4 13 C-4 10.69 -4 8.38 -4 6 C-5.97536745 6.34786708 -5.97536745 6.34786708 -8 7 C-8.33 7.66 -8.66 8.32 -9 9 C-11.97 7.02 -14.94 5.04 -18 3 C-13.7174008 0.8587004 -11.66874348 0.91662958 -7 1 C-2.5 0 -2.5 0 0 0 Z " fill="#676664" transform="translate(72,119)"/>
<path d="M0 0 C3.63 0 7.26 0 11 0 C10.125 9.875 10.125 9.875 9 11 C7.14712498 11.07226502 5.29166122 11.0838122 3.4375 11.0625 C2.42558594 11.05347656 1.41367188 11.04445313 0.37109375 11.03515625 C-0.41136719 11.02355469 -1.19382812 11.01195313 -2 11 C-1.125 3.375 -1.125 3.375 0 0 Z " fill="#454442" transform="translate(96,99)"/>
<path d="M0 0 C3.63 0 7.26 0 11 0 C12.51059728 4.0597302 13 6.54610667 13 11 C9.37 11 5.74 11 2 11 C0.80712589 7.12315913 0 4.08378077 0 0 Z " fill="#434241" transform="translate(174,99)"/>
<path d="M0 0 C8.66666667 0 17.33333333 0 26 0 C26 0.33 26 0.66 26 1 C21.71 1 17.42 1 13 1 C13.66 2.98 14.32 4.96 15 7 C15.34976758 8.32911682 15.69096017 9.66082739 16 11 C13.14278723 11.54712585 11.75887931 11.75469343 9 11 C5.60922962 8.34425421 2.68210103 5.3693514 0 2 C0 1.34 0 0.68 0 0 Z " fill="#3A3A3A" transform="translate(98,124)"/>
<path d="M0 0 C1.32 0.33 2.64 0.66 4 1 C4 1.66 4 2.32 4 3 C3.34 3 2.68 3 2 3 C1.34 5.64 0.68 8.28 0 11 C1.65 11 3.3 11 5 11 C5.33 11.99 5.66 12.98 6 14 C3.36 14 0.72 14 -2 14 C-2.66 16.97 -3.32 19.94 -4 23 C-3.34 23.33 -2.68 23.66 -2 24 C-2 24.66 -2 25.32 -2 26 C-5.3 26 -8.6 26 -12 26 C-12 25.34 -12 24.68 -12 24 C-11.01 23.67 -10.02 23.34 -9 23 C-7.74073732 20.70882632 -7.74073732 20.70882632 -6.73828125 17.87109375 C-6.34189453 16.83662109 -5.94550781 15.80214844 -5.53710938 14.73632812 C-5.13298828 13.64771484 -4.72886719 12.55910156 -4.3125 11.4375 C-3.89677734 10.34501953 -3.48105469 9.25253906 -3.05273438 8.12695312 C-2.02495184 5.42164048 -1.00792217 2.71276137 0 0 Z " fill="#2F2F2F" transform="translate(67,225)"/>
<path d="M0 0 C-0.33 1.32 -0.66 2.64 -1 4 C-0.34 4 0.32 4 1 4 C1 4.66 1 5.32 1 6 C-12.44874715 11.74031891 -12.44874715 11.74031891 -20 11 C-20 9.68 -20 8.36 -20 7 C-17.04380781 5.8278551 -14.08471211 4.66322524 -11.125 3.5 C-10.28324219 3.16613281 -9.44148438 2.83226562 -8.57421875 2.48828125 C-7.76855469 2.17246094 -6.96289062 1.85664062 -6.1328125 1.53125 C-5.38918457 1.23798828 -4.64555664 0.94472656 -3.87939453 0.64257812 C-2 0 -2 0 0 0 Z " fill="#202020" transform="translate(113,53)"/>
<path d="M0 0 C1.99097846 2.98646769 2.94124926 5.59687262 4 9 C-0.75 10.125 -0.75 10.125 -3 9 C-2.67 7.68 -2.34 6.36 -2 5 C-3.19238281 5.51691406 -4.38476562 6.03382812 -5.61328125 6.56640625 C-7.17947422 7.23227272 -8.74589229 7.8976099 -10.3125 8.5625 C-11.09818359 8.90474609 -11.88386719 9.24699219 -12.69335938 9.59960938 C-13.45068359 9.91865234 -14.20800781 10.23769531 -14.98828125 10.56640625 C-15.68477783 10.86490479 -16.38127441 11.16340332 -17.09887695 11.47094727 C-19 12 -19 12 -22 11 C-21.34 10.67 -20.68 10.34 -20 10 C-20.33 9.34 -20.66 8.68 -21 8 C-14.07 5.36 -7.14 2.72 0 0 Z " fill="#656565" transform="translate(115,48)"/>
<path d="M0 0 C1.98 0 3.96 0 6 0 C6 1.98 6 3.96 6 6 C5.67 5.34 5.34 4.68 5 4 C2.52733235 4.34444881 2.52733235 4.34444881 0 5 C-0.33 5.66 -0.66 6.32 -1 7 C2.3 7.33 5.6 7.66 9 8 C9 8.33 9 8.66 9 9 C3.06 9.495 3.06 9.495 -3 10 C-3 10.99 -3 11.98 -3 13 C-0.525 13.99 -0.525 13.99 2 15 C2 15.33 2 15.66 2 16 C-3.41538462 16.36923077 -3.41538462 16.36923077 -6.375 14.5 C-6.91125 14.005 -7.4475 13.51 -8 13 C-7.41196203 9.97580475 -6.77321882 6.98241547 -6 4 C-4.68 4 -3.36 4 -2 4 C-2 3.34 -2 2.68 -2 2 C-1.34 2 -0.68 2 0 2 C0 1.34 0 0.68 0 0 Z " fill="#464646" transform="translate(56,57)"/>
<path d="M0 0 C1.06996173 9.01824887 1.10234659 17.93664124 1 27 C0.01 27 -0.98 27 -2 27 C-2.50642925 23.93852743 -3.00399322 20.87567701 -3.5 17.8125 C-3.64308594 16.94818359 -3.78617188 16.08386719 -3.93359375 15.19335938 C-5.32092799 6.57206804 -5.32092799 6.57206804 -5 3 C-2.72413793 0 -2.72413793 0 0 0 Z " fill="#101010" transform="translate(136,19)"/>
<path d="M0 0 C3.9976021 -0.46306535 5.53475493 -0.36105639 8.7734375 2.15234375 C9.63195312 3.07144531 10.49046875 3.99054688 11.375 4.9375 C12.24898437 5.85402344 13.12296875 6.77054687 14.0234375 7.71484375 C16 10 16 10 16 11 C11.66666667 11 7.33333333 11 3 11 C1.38935371 7.34920174 0.55105909 3.9492568 0 0 Z " fill="#5D5B5A" transform="translate(167,86)"/>
<path d="M0 0 C2.53159304 0.0035757 4.99816222 0.11947306 7.515625 0.37890625 C5.44757086 4.93871342 2.57634811 8.43082127 -1.484375 11.37890625 C-5.421875 11.81640625 -5.421875 11.81640625 -8.484375 11.37890625 C-4.72249817 0.72025522 -4.72249817 0.72025522 0 0 Z " fill="#2A2A2A" transform="translate(175.484375,123.62109375)"/>
<path d="M0 0 C-1.81309003 3.77727089 -3.9073259 7.37269822 -6 11 C-9.63 11 -13.26 11 -17 11 C-15.53370872 9.26711031 -14.06434874 7.53665252 -12.57421875 5.82421875 C-11.37162828 4.43064617 -10.20788029 3.0034623 -9.0625 1.5625 C-6.07794184 -0.69852891 -3.63074202 -0.27928785 0 0 Z " fill="#575453" transform="translate(115,86)"/>
<path d="M0 0 C3 1 3 1 4 3 C4.27043239 8.36132222 3.55977831 13.21976263 2.5 18.4375 C2.35691406 19.16904297 2.21382812 19.90058594 2.06640625 20.65429688 C1.71678704 22.43735486 1.35922312 24.21885203 1 26 C0.01 26 -0.98 26 -2 26 C-1.86125385 22.22887069 -1.71278907 18.45818555 -1.5625 14.6875 C-1.52318359 13.61564453 -1.48386719 12.54378906 -1.44335938 11.43945312 C-1.40146484 10.41142578 -1.35957031 9.38339844 -1.31640625 8.32421875 C-1.27974854 7.37635498 -1.24309082 6.42849121 -1.20532227 5.4519043 C-1 3 -1 3 0 0 Z " fill="#090909" transform="translate(146,20)"/>
<path d="M0 0 C0.99 0 1.98 0 3 0 C2.96519531 0.58007812 2.93039063 1.16015625 2.89453125 1.7578125 C2.71631705 6.90056504 2.86250468 10.67242025 6 15 C8.58414426 15.96906827 8.58414426 15.96906827 11 16 C10.67 16.66 10.34 17.32 10 18 C5.95181889 18.48192632 4.2294197 18.13851755 0.6875 16 C-2.22055749 13.30622043 -2.96124099 10.84361237 -3.17578125 6.9375 C-2.90779269 3.98367054 -1.93387207 2.21013951 0 0 Z " fill="#2E2E2E" transform="translate(143,234)"/>
<path d="M0 0 C3.88786274 0.81020584 5.37376707 2.65695248 7.578125 5.8359375 C7.94808594 6.40570313 8.31804687 6.97546875 8.69921875 7.5625 C9.35921875 8.2225 10.01921875 8.8825 10.69921875 9.5625 C10.69921875 10.5525 10.69921875 11.5425 10.69921875 12.5625 C9.70921875 12.5625 8.71921875 12.5625 7.69921875 12.5625 C7.69921875 11.5725 7.69921875 10.5825 7.69921875 9.5625 C7.03921875 9.5625 6.37921875 9.5625 5.69921875 9.5625 C4.07421875 8.3125 4.07421875 8.3125 2.69921875 6.5625 C2.69921875 5.2425 2.69921875 3.9225 2.69921875 2.5625 C-2.9571247 2.27488932 -5.46789116 2.51014836 -10.30078125 5.5625 C-13.61328125 5.75 -13.61328125 5.75 -16.30078125 5.5625 C-16.30078125 6.2225 -16.30078125 6.8825 -16.30078125 7.5625 C-20.6896745 6.89751617 -24.28192975 5.37492323 -28.30078125 3.5625 C-28.30078125 3.2325 -28.30078125 2.9025 -28.30078125 2.5625 C-26.63789063 2.72298828 -26.63789063 2.72298828 -24.94140625 2.88671875 C-23.47793617 3.00867459 -22.01439008 3.12972073 -20.55078125 3.25 C-19.82117188 3.32283203 -19.0915625 3.39566406 -18.33984375 3.47070312 C-11.32428556 4.01281444 -7.25216912 -0.1549195 0 0 Z " fill="#D4D3D3" transform="translate(237.30078125,92.4375)"/>
<path d="M0 0 C0.33 0 0.66 0 1 0 C1.43927757 6.80880237 0.60637831 12.92839155 -0.8125 19.5625 C-0.97782227 20.37251465 -1.14314453 21.1825293 -1.31347656 22.01708984 C-1.76932235 24.03834954 -2.37374327 26.02488262 -3 28 C-3.99 28.33 -4.98 28.66 -6 29 C-5.49258161 22.6065283 -4.63260704 16.31996549 -3.5625 10 C-3.37917114 8.86896851 -3.37917114 8.86896851 -3.19213867 7.71508789 C-2.23571948 2.23571948 -2.23571948 2.23571948 0 0 Z " fill="#4C4C4C" transform="translate(195,102)"/>
<path d="M0 0 C3.20325006 0.69055572 4.96950326 2.0730895 7.15625 4.46484375 C7.48625 5.45484375 7.81625 6.44484375 8.15625 7.46484375 C4.44025809 7.66570818 3.38416555 7.61678745 0.15625 5.46484375 C-3.92228495 5.61315411 -6.131174 5.86189483 -9.28125 8.52734375 C-9.796875 9.16671875 -10.3125 9.80609375 -10.84375 10.46484375 C-11.65625 8.83984375 -11.65625 8.83984375 -11.84375 6.46484375 C-8.71039035 1.03368703 -6.27526751 -0.42880995 0 0 Z " fill="#545251" transform="translate(151.84375,152.53515625)"/>
<path d="M0 0 C1.32 0 2.64 0 4 0 C3.39700836 7.23589973 1.8849413 13.99370876 0 21 C-0.99 21 -1.98 21 -3 21 C-2.22095672 6.21867882 -2.22095672 6.21867882 0 0 Z " fill="#0F0F0F" transform="translate(152,25)"/>
<path d="M0 0 C0.99 0 1.98 0 3 0 C3.33923576 2.35344806 3.67150534 4.7075484 4 7.0625 C4.09539062 7.71927734 4.19078125 8.37605469 4.2890625 9.05273438 C4.88887674 13.40138763 5.09127093 17.61329071 5 22 C4.01 22 3.02 22 2 22 C1.30111323 19.25244513 0.6156012 16.50268803 -0.0625 13.75 C-0.26166016 12.97269531 -0.46082031 12.19539063 -0.66601562 11.39453125 C-0.84970703 10.64042969 -1.03339844 9.88632812 -1.22265625 9.109375 C-1.39547119 8.41811523 -1.56828613 7.72685547 -1.74633789 7.01464844 C-2.03442072 4.726622 -1.73574229 3.17401119 -1 1 C-0.67 0.67 -0.34 0.34 0 0 Z " fill="#0F0F0F" transform="translate(127,24)"/>
<path d="M0 0 C-0.33 0.66 -0.66 1.32 -1 2 C1.31 1.34 3.62 0.68 6 0 C5.67 1.32 5.34 2.64 5 4 C5.66 4 6.32 4 7 4 C7 4.66 7 5.32 7 6 C4.03871233 7.49071624 1.31211586 8.63839241 -2 9 C-4.88103415 7.48119395 -6.89233457 5.46007251 -9 3 C-7.14340032 -0.71319936 -3.69365381 -0.09982848 0 0 Z " fill="#313131" transform="translate(74,66)"/>
<path d="M0 0 C0.33 0 0.66 0 1 0 C1.50938345 2.49840454 2.00763114 4.99823388 2.5 7.5 C2.64308594 8.19609375 2.78617188 8.8921875 2.93359375 9.609375 C3.88277373 14.49087203 4.13440046 19.02718299 4 24 C4.99 24 5.98 24 7 24 C6.67 17.4 6.34 10.8 6 4 C6.66 3.67 7.32 3.34 8 3 C8.33 10.26 8.66 17.52 9 25 C7.02 25 5.04 25 3 25 C1.11918875 16.60352122 -0.55048791 8.66508753 0 0 Z " fill="#CFCFCF" transform="translate(130,22)"/>
<path d="M0 0 C0.66 0 1.32 0 2 0 C2 0.66 2 1.32 2 2 C2.99 2.33 3.98 2.66 5 3 C6.61328125 4.671875 6.61328125 4.671875 8.3125 6.75 C10.53926602 9.39843022 12.70246693 11.69317342 15.4375 13.8125 C16.283125 14.534375 17.12875 15.25625 18 16 C18 16.99 18 17.98 18 19 C14.45177554 18.42118732 12.81577197 17.17307641 10.328125 14.62109375 C9.66425781 13.94755859 9.00039062 13.27402344 8.31640625 12.58007812 C7.63449219 11.87302734 6.95257813 11.16597656 6.25 10.4375 C5.55261719 9.72658203 4.85523437 9.01566406 4.13671875 8.28320312 C2.4175342 6.52869286 0.70574128 4.76756648 -1 3 C-0.67 2.01 -0.34 1.02 0 0 Z " fill="#323232" transform="translate(117,178)"/>
<path d="M0 0 C1.5625 1.0625 1.5625 1.0625 3 3 C2.71893874 7.87172846 1.42031742 12.36029644 0 17 C-1.9375 16.3125 -1.9375 16.3125 -4 15 C-4.9375 12.6875 -4.9375 12.6875 -5 10 C-3.5625 7.375 -3.5625 7.375 -2 5 C-2 4.01 -2 3.02 -2 2 C-1.34 2 -0.68 2 0 2 C0 1.34 0 0.68 0 0 Z " fill="#585758" transform="translate(74,137)"/>
<path d="M0 0 C5.05255964 0.63156995 9.29593201 2.13459373 14 4 C13.67 4.66 13.34 5.32 13 6 C12.34 6 11.68 6 11 6 C11 6.99 11 7.98 11 9 C6.61110675 8.33501617 3.0188515 6.81242323 -1 5 C-0.67 3.35 -0.34 1.7 0 0 Z " fill="#282828" transform="translate(164,52)"/>
<path d="M0 0 C1.4216868 4.26506039 -0.34613318 7.20037743 -1.9375 11.1875 C-2.22818359 11.93708984 -2.51886719 12.68667969 -2.81835938 13.45898438 C-3.53725036 15.30924477 -4.26754653 17.15506648 -5 19 C-6.32 19 -7.64 19 -9 19 C-8.27312238 16.27663186 -7.53686433 13.55648177 -6.78515625 10.83984375 C-6.19622836 8.70974137 -5.62493435 6.57475053 -5.0625 4.4375 C-4 2 -4 2 -1.875 0.625 C-1.25625 0.41875 -0.6375 0.2125 0 0 Z " fill="#232323" transform="translate(168,27)"/>
<path d="M0 0 C1.32 0.66 2.64 1.32 4 2 C2.83348574 7.92863717 1.24480642 13.38798394 -1 19 C-1.99 19 -2.98 19 -4 19 C-3.37968409 12.42465139 -1.85102717 6.33307408 0 0 Z " fill="#0B0B0B" transform="translate(158,27)"/>
<path d="M0 0 C2.475 0.495 2.475 0.495 5 1 C6.32 6.61 7.64 12.22 9 18 C7.68 18 6.36 18 5 18 C2.89603589 12.06682122 1.24028238 6.17222879 0 0 Z " fill="#090909" transform="translate(119,28)"/>
<path d="M0 0 C1.79093191 -0.08086147 3.58289628 -0.13912702 5.375 -0.1875 C6.87160156 -0.23970703 6.87160156 -0.23970703 8.3984375 -0.29296875 C9.25695312 -0.19628906 10.11546875 -0.09960938 11 0 C11.66 0.99 12.32 1.98 13 3 C11.35 3 9.7 3 8 3 C7.67 4.65 7.34 6.3 7 8 C4.23723823 7.47731534 1.6739124 6.89130413 -1 6 C-0.67 4.02 -0.34 2.04 0 0 Z " fill="#2A2A2A" transform="translate(191,62)"/>
<path d="M0 0 C1.1577506 3.47325181 1.06866652 6.36067448 1 10 C-4.94 8.515 -4.94 8.515 -11 7 C-10.01 6.67 -9.02 6.34 -8 6 C-7.29788106 4.34795544 -6.63028587 2.68076231 -6 1 C-4 0 -4 0 0 0 Z " fill="#787878" transform="translate(203,35)"/>
<path d="M0 0 C2.8125 0.1875 2.8125 0.1875 6 1 C7.875 3.5625 7.875 3.5625 9 6 C7.9375 7.5 7.9375 7.5 6 9 C2.3125 9.1875 2.3125 9.1875 -1 9 C-0.67 6.03 -0.34 3.06 0 0 Z " fill="#868686" transform="translate(78,35)"/>
<path d="M0 0 C5.07346939 6.45714286 5.07346939 6.45714286 4.875 10.625 C4 13 4 13 1.9375 14.3125 C1.298125 14.539375 0.65875 14.76625 0 15 C-1.09845718 10.67940177 -2.17812739 6.38332057 -3 2 C-2.01 1.34 -1.02 0.68 0 0 Z " fill="#464445" transform="translate(207,139)"/>
<path d="M0 0 C1.65 1.65 3.3 3.3 5 5 C4.401875 5.061875 3.80375 5.12375 3.1875 5.1875 C0.12856542 6.3236757 -0.55041099 8.17330142 -2 11 C-2.99 10.67 -3.98 10.34 -5 10 C-5.33 7.69 -5.66 5.38 -6 3 C-4.68 3 -3.36 3 -2 3 C-2 2.34 -2 1.68 -2 1 C-1.34 0.67 -0.68 0.34 0 0 Z " fill="#595858" transform="translate(67,133)"/>
<path d="M0 0 C1.890625 0.30078125 1.890625 0.30078125 4 1 C6.48612064 5.52829116 7.38279888 8.76841536 7 14 C5.125 13.75 5.125 13.75 3 13 C1.20105694 10.1216911 0.67084908 7.60295627 0.375 4.25 C0.30023438 3.45078125 0.22546875 2.6515625 0.1484375 1.828125 C0.09945312 1.22484375 0.05046875 0.6215625 0 0 Z " fill="#363535" transform="translate(46,185)"/>
<path d="M0 0 C0.33 2.64 0.66 5.28 1 8 C-1.25 8.6875 -1.25 8.6875 -4 9 C-6.3125 7.5625 -6.3125 7.5625 -8 6 C-6.24081631 1.94034532 -4.71412298 0 0 0 Z " fill="#757575" transform="translate(216,45)"/>
<path d="M0 0 C0.33 0.66 0.66 1.32 1 2 C1.66 2 2.32 2 3 2 C1.9007105 8.31121503 0.41862058 14.06338584 -2 20 C-2.99 19.34 -3.98 18.68 -5 18 C-3.36959185 11.98922864 -1.72852643 5.98336072 0 0 Z " fill="#4D4D4D" transform="translate(188,129)"/>
<path d="M0 0 C0.33 0.66 0.66 1.32 1 2 C0.31035156 1.98839844 -0.37929687 1.97679688 -1.08984375 1.96484375 C-7.15772652 1.90657876 -12.98357396 2.21096052 -19 3 C-16.50365844 -0.74451234 -14.63536208 -1.32524291 -10.4609375 -2.62890625 C-6.25518752 -3.26310664 -3.73218028 -1.93273622 0 0 Z " fill="#3F3F3F" transform="translate(148,63)"/>
<path d="M0 0 C0.99 0.33 1.98 0.66 3 1 C4.40454548 7.11980533 5.23268915 12.71739294 5 19 C4.34 19 3.68 19 3 19 C0.99134292 12.49577707 -0.38614349 6.8218683 0 0 Z " fill="#404040" transform="translate(86,108)"/>
<path d="M0 0 C0.33 2.97 0.66 5.94 1 9 C-2.6441774 11.4294516 -4.71241272 11.16179575 -9 11 C-7.36587557 9.29159719 -6.13093906 8.06546953 -4 7 C-3.34227572 3.97065509 -3.34227572 3.97065509 -3 1 C-3.99 0.67 -4.98 0.34 -6 0 C-3 -1 -3 -1 0 0 Z " fill="#535353" transform="translate(232,62)"/>
<path d="M0 0 C1.83553796 2.75330694 2.40778129 4.11657204 3.0703125 7.23046875 C3.33134766 8.43413086 3.33134766 8.43413086 3.59765625 9.66210938 C3.77167969 10.49548828 3.94570312 11.32886719 4.125 12.1875 C4.30675781 13.03248047 4.48851562 13.87746094 4.67578125 14.74804688 C5.12292753 16.8308072 5.56222376 18.91525006 6 21 C2.7 21 -0.6 21 -4 21 C-3.34 20.67 -2.68 20.34 -2 20 C-1.34786708 17.97536745 -1.34786708 17.97536745 -1 16 C-0.67 17.32 -0.34 18.64 0 20 C0.99 19.67 1.98 19.34 3 19 C2.38357466 16.37271142 1.75732213 13.74846418 1.125 11.125 C0.95097656 10.37863281 0.77695313 9.63226563 0.59765625 8.86328125 C-0.38923879 4.51116329 -0.38923879 4.51116329 -3 1 C-2.01 0.67 -1.02 0.34 0 0 Z " fill="#BCBCBC" transform="translate(124,26)"/>
<path d="M0 0 C0.68359375 1.640625 0.68359375 1.640625 1 4 C-0.21484375 6.796875 -0.21484375 6.796875 -1.9375 9.75 C-2.50339844 10.73484375 -3.06929687 11.7196875 -3.65234375 12.734375 C-4.09707031 13.48203125 -4.54179687 14.2296875 -5 15 C-5.99 15 -6.98 15 -8 15 C-8.33 14.34 -8.66 13.68 -9 13 C-7.890625 10.46875 -7.890625 10.46875 -6.25 7.5 C-5.71890625 6.5203125 -5.1878125 5.540625 -4.640625 4.53125 C-3 2 -3 2 0 0 Z " fill="#333333" transform="translate(187,154)"/>
<path d="M0 0 C3.37462715 0.54723683 5.08235 1.0549 8 3 C7 6 7 6 4 8 C0.3125 7.625 0.3125 7.625 -3 7 C-3.33 5.35 -3.66 3.7 -4 2 C-0.535 3.485 -0.535 3.485 3 5 C3 4.34 3 3.68 3 3 C2.01 3 1.02 3 0 3 C0 2.01 0 1.02 0 0 Z " fill="#363636" transform="translate(204,50)"/>
<path d="M0 0 C-1.65 0.33 -3.3 0.66 -5 1 C-4.65555119 3.47266765 -4.65555119 3.47266765 -4 6 C-3.34 6.33 -2.68 6.66 -2 7 C-6.75 8.125 -6.75 8.125 -9 7 C-9.33 6.01 -9.66 5.02 -10 4 C-11.1446875 4.5259375 -11.1446875 4.5259375 -12.3125 5.0625 C-15 6 -15 6 -18 5 C-17.34 4.67 -16.68 4.34 -16 4 C-16.33 3.34 -16.66 2.68 -17 2 C-15.34385343 1.61781233 -13.67542976 1.28604898 -12 1 C-11.67 1.33 -11.34 1.66 -11 2 C-10.45730469 1.77183594 -9.91460937 1.54367188 -9.35546875 1.30859375 C-8.28232422 0.87740234 -8.28232422 0.87740234 -7.1875 0.4375 C-6.47980469 0.14746094 -5.77210937 -0.14257812 -5.04296875 -0.44140625 C-3 -1 -3 -1 0 0 Z " fill="#525252" transform="translate(88,63)"/>
<path d="M0 0 C0.66 0 1.32 0 2 0 C1.25 5.75 1.25 5.75 -1 8 C-4.84100398 9.47730922 -8.95250514 9.06745825 -13 9 C-13.33 8.34 -13.66 7.68 -14 7 C-12.98679687 6.87044922 -12.98679687 6.87044922 -11.953125 6.73828125 C-6.08067576 5.90884085 -6.08067576 5.90884085 -1.5 2.375 C-1.005 1.59125 -0.51 0.8075 0 0 Z " fill="#3C3C3C" transform="translate(134,243)"/>
<path d="M0 0 C0 0.99 0 1.98 0 3 C-5.23255814 8 -5.23255814 8 -9 8 C-9 5.69 -9 3.38 -9 1 C-6.04335481 -0.4783226 -3.25770263 -0.06032783 0 0 Z " fill="#444444" transform="translate(150,136)"/>
<path d="M0 0 C0.75023437 0.56847656 0.75023437 0.56847656 1.515625 1.1484375 C-1.5177529 3.17068944 -4.09781989 4.14191274 -7.546875 5.2734375 C-8.61035156 5.62664062 -9.67382812 5.97984375 -10.76953125 6.34375 C-13.484375 7.1484375 -13.484375 7.1484375 -15.484375 7.1484375 C-15.484375 6.4884375 -15.484375 5.8284375 -15.484375 5.1484375 C-16.144375 4.8184375 -16.804375 4.4884375 -17.484375 4.1484375 C-15.07319992 3.25474325 -12.6575544 2.38341984 -10.234375 1.5234375 C-9.55246094 1.26820312 -8.87054688 1.01296875 -8.16796875 0.75 C-3.04041483 -1.04215477 -3.04041483 -1.04215477 0 0 Z " fill="#4B4B4B" transform="translate(130.484375,64.8515625)"/>
<path d="M0 0 C1.67542976 0.28604898 3.34385343 0.61781233 5 1 C5 1.66 5 2.32 5 3 C5.66 3.33 6.32 3.66 7 4 C6.4375 5.9375 6.4375 5.9375 5 8 C1.375 8.75 1.375 8.75 -2 9 C-1.125 1.125 -1.125 1.125 0 0 Z " fill="#606060" transform="translate(95,34)"/>
<path d="M0 0 C5.28 1.98 10.56 3.96 16 6 C10.4971059 8.75144705 7.77073768 7.27524281 2.1875 5.4375 C0.79066707 4.96125517 -0.60550891 4.483059 -2 4 C-1.34 2.68 -0.68 1.36 0 0 Z " fill="#434343" transform="translate(166,48)"/>
<path d="M0 0 C5.75 -0.125 5.75 -0.125 8 1 C8 3.31 8 5.62 8 8 C4.12867972 7.42647107 1.91827204 5.51295648 -1 3 C-0.67 2.01 -0.34 1.02 0 0 Z " fill="#3A3A3A" transform="translate(132,136)"/>
<path d="M0 0 C-0.33 0.33 -0.66 0.66 -1 1 C-0.34 1.66 0.32 2.32 1 3 C-0.76858691 3.67260351 -2.53996016 4.33788395 -4.3125 5 C-5.29863281 5.37125 -6.28476563 5.7425 -7.30078125 6.125 C-10 7 -10 7 -13 7 C-13 5.68 -13 4.36 -13 3 C-11.21189234 2.30329584 -9.41937948 1.61788811 -7.625 0.9375 C-6.62726563 0.55464844 -5.62953125 0.17179687 -4.6015625 -0.22265625 C-2 -1 -2 -1 0 0 Z " fill="#3A3A3A" transform="translate(99,70)"/>
<path d="M0 0 C9.41002278 -0.3690205 9.41002278 -0.3690205 14 2 C14 4.31 14 6.62 14 9 C13.34 9 12.68 9 12 9 C11.77570313 8.36578125 11.55140625 7.7315625 11.3203125 7.078125 C10.16214243 4.77983843 10.16214243 4.77983843 7.6171875 4.171875 C6.71226563 4.03265625 5.80734375 3.8934375 4.875 3.75 C3.96492188 3.60046875 3.05484375 3.4509375 2.1171875 3.296875 C1.41851562 3.19890625 0.71984375 3.1009375 0 3 C0 2.01 0 1.02 0 0 Z " fill="#6A6A6A" transform="translate(121,221)"/>
<path d="M0 0 C0.88257281 2.43245678 1.21943692 3.52647822 0.109375 5.921875 C-0.33921875 6.52515625 -0.7878125 7.1284375 -1.25 7.75 C-1.68828125 8.36359375 -2.1265625 8.9771875 -2.578125 9.609375 C-4 11 -4 11 -7 11 C-9.15028304 11.94978897 -9.15028304 11.94978897 -11 13 C-9.92898814 11.20094076 -8.84270085 9.41096904 -7.75 7.625 C-7.14671875 6.62726563 -6.5434375 5.62953125 -5.921875 4.6015625 C-4.03641221 2.0492897 -2.92773776 1.07523113 0 0 Z " fill="#3D3D3D" transform="translate(180,167)"/>
<path d="M0 0 C0.66 0 1.32 0 2 0 C2 0.66 2 1.32 2 2 C3.32 2 4.64 2 6 2 C5.74438677 4.3431213 5.40729228 6.67843403 5 9 C4.01 9.495 4.01 9.495 3 10 C0.14643942 8.57321971 -0.67172689 6.85578718 -2 4 C-1.1875 1.6875 -1.1875 1.6875 0 0 Z " fill="#4A4949" transform="translate(214,134)"/>
<path d="M0 0 C0 1.32 0 2.64 0 4 C-1.32 3.67 -2.64 3.34 -4 3 C-3.42655063 5.86724686 -3.1385485 6.8614515 -1 9 C-2.32 9.33 -3.64 9.66 -5 10 C-6.32 7.36 -7.64 4.72 -9 2 C-5.5647952 -0.29013653 -4.014669 -0.17842973 0 0 Z " fill="#404040" transform="translate(218,54)"/>
<path d="M0 0 C2.375 0.3125 2.375 0.3125 5 1 C5.66 1.99 6.32 2.98 7 4 C6.01 4 5.02 4 4 4 C4 4.66 4 5.32 4 6 C4.99 5.67 5.98 5.34 7 5 C6.34 6.32 5.68 7.64 5 9 C5 8.34 5 7.68 5 7 C4.34 7 3.68 7 3 7 C3 7.66 3 8.32 3 9 C2.01 9 1.02 9 0 9 C-1.125 3.375 -1.125 3.375 0 0 Z " fill="#8F8F8F" transform="translate(65,45)"/>
<path d="M0 0 C0.5775 0.515625 1.155 1.03125 1.75 1.5625 C3.83907305 3.22178666 3.83907305 3.22178666 6 2.8125 C8.06348821 1.97420791 10.03678574 1.05172193 12 0 C11.01 1.485 11.01 1.485 10 3 C10 3.99 10 4.98 10 6 C7.9375 7.3125 7.9375 7.3125 5 8 C2.39879043 6.65102562 0.2176277 4.90447566 -2 3 C-1.34 2.67 -0.68 2.34 0 2 C0 1.34 0 0.68 0 0 Z " fill="#565656" transform="translate(135,195)"/>
<path d="M0 0 C0.33 0.99 0.66 1.98 1 3 C-3.62 7.62 -8.24 12.24 -13 17 C-13.66 16.34 -14.32 15.68 -15 15 C-10.05 10.05 -5.1 5.1 0 0 Z " fill="#272727" transform="translate(165,187)"/>
<path d="M0 0 C4.28806873 0.47645208 6.26647487 1.65902484 9 5 C9 5.66 9 6.32 9 7 C2.84765625 7.09765625 2.84765625 7.09765625 1 7 C0 6 0 6 -0.0625 2.9375 C-0.041875 1.968125 -0.02125 0.99875 0 0 Z " fill="#747372" transform="translate(141,78)"/>
<path d="M0 0 C0 0.99 0 1.98 0 3 C-1.24176695 3.70226141 -2.49385599 4.38629109 -3.75 5.0625 C-4.79414063 5.63677734 -4.79414063 5.63677734 -5.859375 6.22265625 C-8.36140628 7.1312406 -9.5332355 6.88336837 -12 6 C-7.99402755 0.79223581 -6.57420945 -0.1429176 0 0 Z " fill="#6F6F6F" transform="translate(160,136)"/>
<path d="M0 0 C2.6875 -0.3125 2.6875 -0.3125 6 0 C8.57285724 2.172635 10.48996919 3.97993838 12 7 C7.14036821 6.39254603 3.2594482 4.27241033 -1 2 C-0.67 1.34 -0.34 0.68 0 0 Z " fill="#505050" transform="translate(121,136)"/>
<path d="M0 0 C0.04254356 1.99954746 0.04080783 4.00041636 0 6 C-1 7 -1 7 -2.84765625 7.09765625 C-4.8984375 7.06510417 -6.94921875 7.03255208 -9 7 C-7.16766277 2.5718517 -4.96404317 0 0 0 Z " fill="#706F6F" transform="translate(140,78)"/>
<path d="M0 0 C0.33 1.65 0.66 3.3 1 5 C0.01 4.67 -0.98 4.34 -2 4 C-1.67 5.32 -1.34 6.64 -1 8 C-3.97 7.505 -3.97 7.505 -7 7 C-7.33 5.68 -7.66 4.36 -8 3 C-7.34 3 -6.68 3 -6 3 C-6 2.34 -6 1.68 -6 1 C-4 0 -4 0 0 0 Z " fill="#898989" transform="translate(187,34)"/>
<path d="M0 0 C-0.33 1.32 -0.66 2.64 -1 4 C-0.34 4.33 0.32 4.66 1 5 C-2.22791555 7.1519437 -3.28400809 7.20086443 -7 7 C-7.33 5.35 -7.66 3.7 -8 2 C-5.09399739 0.74335022 -3.20395416 0 0 0 Z " fill="#1F1F1F" transform="translate(91,62)"/>
<path d="M0 0 C-0.33 0.99 -0.66 1.98 -1 3 C-5.0916861 4.80795432 -8.55719328 5.21156222 -13 5 C-11.28158532 2.13597554 -10.15883902 1.07097062 -7.0625 -0.3125 C-4.12938515 -0.97095435 -2.7534603 -1.05902319 0 0 Z " fill="#383838" transform="translate(136,58)"/>
<path d="M0 0 C1.98 0 3.96 0 6 0 C6 1.98 6 3.96 6 6 C5.67 5.34 5.34 4.68 5 4 C0.05 5.485 0.05 5.485 -5 7 C-5.33 6.01 -5.66 5.02 -6 4 C-4.68 4 -3.36 4 -2 4 C-2 3.34 -2 2.68 -2 2 C-1.34 2 -0.68 2 0 2 C0 1.34 0 0.68 0 0 Z " fill="#878787" transform="translate(56,57)"/>
<path d="M0 0 C-0.66 1.98 -1.32 3.96 -2 6 C-4.64 6 -7.28 6 -10 6 C-10 4.68 -10 3.36 -10 2 C-8.71211992 1.46987262 -7.41953322 0.9511671 -6.125 0.4375 C-5.40570313 0.14746094 -4.68640625 -0.14257812 -3.9453125 -0.44140625 C-2 -1 -2 -1 0 0 Z " fill="#222222" transform="translate(103,58)"/>
<path d="M0 0 C1.09570312 0.00902344 2.19140625 0.01804688 3.3203125 0.02734375 C4.16335937 0.03894531 5.00640625 0.05054688 5.875 0.0625 C5.875 0.3925 5.875 0.7225 5.875 1.0625 C4.080625 1.18625 4.080625 1.18625 2.25 1.3125 C-2.03485187 1.82151609 -4.64700739 3.49541021 -8.125 6.0625 C-8.785 6.0625 -9.445 6.0625 -10.125 6.0625 C-11.48661311 7.02363866 -12.82355198 8.02134159 -14.125 9.0625 C-11.12903532 2.07191574 -7.331473 -0.07799439 0 0 Z " fill="#404040" transform="translate(123.125,221.9375)"/>
<path d="M0 0 C-2.57213134 1.61949011 -3.67669159 2.04408751 -6.75 1.625 C-7.4925 1.41875 -8.235 1.2125 -9 1 C-9 1.66 -9 2.32 -9 3 C-8.01 3.33 -7.02 3.66 -6 4 C-6.33 4.99 -6.66 5.98 -7 7 C-8.65 6.67 -10.3 6.34 -12 6 C-11.52 0.48 -11.52 0.48 -9.375 -1.5 C-5.89267275 -2.23312153 -3.30530695 -1.14414471 0 0 Z " fill="#414141" transform="translate(210,65)"/>
<path d="M0 0 C6.75 0.75 6.75 0.75 9 3 C9.125 5.625 9.125 5.625 9 8 C7.35 8 5.7 8 4 8 C4 6.02 4 4.04 4 2 C2.35 2 0.7 2 -1 2 C-0.67 1.34 -0.34 0.68 0 0 Z " fill="#303030" transform="translate(198,231)"/>
<path d="M0 0 C0.99 0.99 1.98 1.98 3 3 C0.69 5.97 -1.62 8.94 -4 12 C-4.99 11.67 -5.98 11.34 -7 11 C-5.22054913 6.95579349 -2.60470327 3.53921513 0 0 Z " fill="#464646" transform="translate(171,167)"/>
<path d="M0 0 C1.65087847 0.59024148 3.29562407 1.19766006 4.9375 1.8125 C6.31228516 2.31716797 6.31228516 2.31716797 7.71484375 2.83203125 C10 4 10 4 11 7 C4.65625 7.48798077 4.65625 7.48798077 1.5625 5.1875 C0 3 0 3 0 0 Z " fill="#7E7D7C" transform="translate(149,78)"/>
<path d="M0 0 C-1.28759017 2.87231652 -2.37877169 5.19225634 -5 7 C-8.6875 7.1875 -8.6875 7.1875 -12 7 C-12 6.34 -12 5.68 -12 5 C-10.37750059 4.16180842 -8.75191503 3.3295884 -7.125 2.5 C-6.22007813 2.0359375 -5.31515625 1.571875 -4.3828125 1.09375 C-2 0 -2 0 0 0 Z " fill="#7E7C7C" transform="translate(133,78)"/>
<path d="M0 0 C0.66 0.33 1.32 0.66 2 1 C1.67 1.33 1.34 1.66 1 2 C1.66 2.66 2.32 3.32 3 4 C1.56445975 4.50559908 0.1264798 5.0042749 -1.3125 5.5 C-2.51326172 5.91765625 -2.51326172 5.91765625 -3.73828125 6.34375 C-6 7 -6 7 -9 7 C-8.4375 5.1875 -8.4375 5.1875 -7 3 C-3.5 1.1875 -3.5 1.1875 0 0 Z " fill="#2F2F2F" transform="translate(123,60)"/>
<path d="M0 0 C0.99 0.33 1.98 0.66 3 1 C2.35083537 7.00477279 0.14204997 12.400781 -2 18 C-1.01 18.33 -0.02 18.66 1 19 C-0.65 19 -2.3 19 -4 19 C-3.566875 17.081875 -3.566875 17.081875 -3.125 15.125 C-2.00617536 10.09828073 -0.9916404 5.05314632 0 0 Z " fill="#BBBBBB" transform="translate(161,28)"/>
<path d="M0 0 C2 3.75 2 3.75 2 6 C2.66 6 3.32 6 4 6 C3.75 7.875 3.75 7.875 3 10 C0.9375 11.25 0.9375 11.25 -1 12 C-2 11 -2 11 -2.1875 8.8125 C-1.97397604 5.60964058 -1.11554182 2.99801865 0 0 Z " fill="#4B4B4B" transform="translate(230,187)"/>
<path d="M0 0 C-0.99 1.485 -0.99 1.485 -2 3 C-4.32817964 3.36760731 -6.6618385 3.70241581 -9 4 C-9.33 4.66 -9.66 5.32 -10 6 C-10.66 6 -11.32 6 -12 6 C-12.99 6.495 -12.99 6.495 -14 7 C-12.98929671 4.3354186 -12.0600516 3.04804128 -9.8125 1.25 C-6.37585024 -0.27739989 -3.72102151 -0.21888362 0 0 Z " fill="#5F5F5F" transform="translate(180,231)"/>
<path d="M0 0 C5.445 1.485 5.445 1.485 11 3 C10.01 3.495 10.01 3.495 9 4 C9 4.66 9 5.32 9 6 C5.37 5.01 1.74 4.02 -2 3 C-1.34 2.01 -0.68 1.02 0 0 Z " fill="#515151" transform="translate(148,63)"/>
<path d="M0 0 C1.32 0.33 2.64 0.66 4 1 C4 1.66 4 2.32 4 3 C3.34 3 2.68 3 2 3 C1.34 5.64 0.68 8.28 0 11 C1.65 11 3.3 11 5 11 C5 11.33 5 11.66 5 12 C3.02 12 1.04 12 -1 12 C-1.92470553 7.28400182 -2.22923777 4.32734391 0 0 Z " fill="#707070" transform="translate(67,225)"/>
<path d="M0 0 C0.33 0 0.66 0 1 0 C1.33 4.62 1.66 9.24 2 14 C1.34 14 0.68 14 0 14 C-0.33 14.66 -0.66 15.32 -1 16 C-1.33 12.7 -1.66 9.4 -2 6 C-1.67 6 -1.34 6 -1 6 C-0.67 4.02 -0.34 2.04 0 0 Z " fill="#5A5A5A" transform="translate(86,94)"/>
<path d="M0 0 C1.98 0 3.96 0 6 0 C6 0.66 6 1.32 6 2 C7.65 2.33 9.3 2.66 11 3 C11 3.33 11 3.66 11 4 C6.71 4 2.42 4 -2 4 C-1.34 3.67 -0.68 3.34 0 3 C0 2.01 0 1.02 0 0 Z " fill="#030303" transform="translate(55,61)"/>
<path d="M0 0 C0.556875 0.185625 1.11375 0.37125 1.6875 0.5625 C4.399133 1.07551165 6.34371039 0.6640724 9 0 C9.33 1.65 9.66 3.3 10 5 C4.25 4.125 4.25 4.125 2 3 C2 2.34 2 1.68 2 1 C1.34 0.67 0.68 0.34 0 0 Z " fill="#414141" transform="translate(216,231)"/>
<path d="M0 0 C0.99 0.495 0.99 0.495 2 1 C1.01 1.495 1.01 1.495 0 2 C0 1.34 0 0.68 0 0 Z M-2 3 C-1 5 -1 5 -1.625 6.9375 C-3.35198322 9.52797483 -5.2734275 10.56496184 -8 12 C-8 9 -8 9 -5.5625 6.375 C-4.716875 5.59125 -3.87125 4.8075 -3 4 C-2.67 3.67 -2.34 3.34 -2 3 Z " fill="#5B5959" transform="translate(214,129)"/>
<path d="M0 0 C1.60495567 0.11442461 3.20898119 0.24194694 4.8125 0.375 C5.70582031 0.44460937 6.59914062 0.51421875 7.51953125 0.5859375 C10 1 10 1 13 3 C12.67 3.66 12.34 4.32 12 5 C7.61110675 4.33501617 4.0188515 2.81242323 0 1 C0 0.67 0 0.34 0 0 Z " fill="#838281" transform="translate(209,95)"/>
<path d="M0 0 C1.258125 0.12375 2.51625 0.2475 3.8125 0.375 C4.87404297 0.47941406 4.87404297 0.47941406 5.95703125 0.5859375 C8 1 8 1 11 3 C10.34 3 9.68 3 9 3 C9 3.66 9 4.32 9 5 C6.03 4.01 3.06 3.02 0 2 C0 1.34 0 0.68 0 0 Z " fill="#424242" transform="translate(157,67)"/>
<path d="M0 0 C0.2475 0.639375 0.495 1.27875 0.75 1.9375 C1.81562433 4.18741541 1.81562433 4.18741541 4.125 4.75 C4.74375 4.8325 5.3625 4.915 6 5 C-0.75 7.125 -0.75 7.125 -3 6 C-2.67 4.68 -2.34 3.36 -2 2 C-2.99 1.67 -3.98 1.34 -5 1 C-3 0 -3 0 0 0 Z " fill="#535353" transform="translate(93,60)"/>
<path d="M0 0 C0.125 2.875 0.125 2.875 0 6 C-2 8 -2 8 -3.9453125 8.1953125 C-5.96354167 8.13020833 -7.98177083 8.06510417 -10 8 C-8.68 7.67 -7.36 7.34 -6 7 C-6 6.34 -6 5.68 -6 5 C-1.35714286 0 -1.35714286 0 0 0 Z " fill="#606060" transform="translate(114,40)"/>
<path d="M0 0 C0.66 0.33 1.32 0.66 2 1 C2.33 1.99 2.66 2.98 3 4 C3.66 4.33 4.32 4.66 5 5 C2.69 5.66 0.38 6.32 -2 7 C-2.6875 5.1875 -2.6875 5.1875 -3 3 C-1.5625 1.25 -1.5625 1.25 0 0 Z " fill="#3B3B3B" transform="translate(104,56)"/>
<path d="M0 0 C1.32 0.33 2.64 0.66 4 1 C4.33 2.32 4.66 3.64 5 5 C0.25 6.125 0.25 6.125 -2 5 C-1.34 3.35 -0.68 1.7 0 0 Z " fill="#313131" transform="translate(114,52)"/>
<path d="M0 0 C2.43840236 2.43840236 3.62292893 4.85240898 5 8 C4.67 8.66 4.34 9.32 4 10 C3.01 10 2.02 10 1 10 C-0.80411967 7.24075815 -1.0127245 6.11027897 -0.625 2.75 C-0.41875 1.8425 -0.2125 0.935 0 0 Z " fill="#4E4E4E" transform="translate(98,147)"/>
<path d="M0 0 C0.33 0.99 0.66 1.98 1 3 C1.99 3 2.98 3 4 3 C4 3.66 4 4.32 4 5 C0.7 5 -2.6 5 -6 5 C-6 4.34 -6 3.68 -6 3 C-4.02 2.01 -2.04 1.02 0 0 Z " fill="#2A2A2A" transform="translate(61,246)"/>
<path d="M0 0 C3.13506611 0.33589994 4.025249 1.02665172 6.25 3.375 C8 6 8 6 8 9 C7.01 9 6.02 9 5 9 C5 8.01 5 7.02 5 6 C4.34 6 3.68 6 3 6 C1.375 4.6875 1.375 4.6875 0 3 C0 2.01 0 1.02 0 0 Z " fill="#AAA9A8" transform="translate(240,96)"/>
<path d="M0 0 C0.66 0 1.32 0 2 0 C1.67 1.98 1.34 3.96 1 6 C0.01 6 -0.98 6 -2 6 C-2.33 6.33 -2.66 6.66 -3 7 C-4.51928038 7.07179964 -6.04167482 7.08392007 -7.5625 7.0625 C-8.38878906 7.05347656 -9.21507813 7.04445312 -10.06640625 7.03515625 C-10.70449219 7.02355469 -11.34257813 7.01195312 -12 7 C-12 6.67 -12 6.34 -12 6 C-10.7625 5.938125 -9.525 5.87625 -8.25 5.8125 C-4.70863773 5.39954963 -4.19214408 5.20731335 -1.625 2.4375 C-0.820625 1.2309375 -0.820625 1.2309375 0 0 Z " fill="#717171" transform="translate(134,243)"/>
<path d="M0 0 C0.66 0.33 1.32 0.66 2 1 C1.67 3.97 1.34 6.94 1 10 C0.01 10 -0.98 10 -2 10 C-3 8 -3 8 -2.44140625 6.0546875 C-2.15136719 5.33539063 -1.86132812 4.61609375 -1.5625 3.875 C-1.27503906 3.15054688 -0.98757812 2.42609375 -0.69140625 1.6796875 C-0.46324219 1.12539062 -0.23507813 0.57109375 0 0 Z " fill="#454545" transform="translate(62,238)"/>
<path d="M0 0 C1.37432457 3.81756824 0.67975039 7.07255329 0 11 C-0.99 10.34 -1.98 9.68 -3 9 C-3.375 6.0625 -3.375 6.0625 -3 3 C-1.5 1.125 -1.5 1.125 0 0 Z " fill="#4E4E4E" transform="translate(197,94)"/>
<path d="M0 0 C0.66 0 1.32 0 2 0 C5 3.46153846 5 3.46153846 5 6 C6.65 6 8.3 6 10 6 C10 6.33 10 6.66 10 7 C3.56461405 7.36426713 3.56461405 7.36426713 1.0625 5.75 C0 4 0 4 0 0 Z " fill="#5B5B5B" transform="translate(167,41)"/>
<path d="M0 0 C4.82382465 0.26799026 6.86565605 2.50744532 10 6 C8.53932801 5.54917531 7.08151968 5.08906463 5.625 4.625 C4.81289062 4.36976563 4.00078125 4.11453125 3.1640625 3.8515625 C1 3 1 3 -1 1 C-0.67 0.67 -0.34 0.34 0 0 Z " fill="#676767" transform="translate(113,136)"/>
<path d="M0 0 C-0.33 0.99 -0.66 1.98 -1 3 C-3.06640625 3.94921875 -3.06640625 3.94921875 -5.5625 4.6875 C-6.38878906 4.93886719 -7.21507812 5.19023437 -8.06640625 5.44921875 C-8.70449219 5.63097656 -9.34257812 5.81273437 -10 6 C-10 5.34 -10 4.68 -10 4 C-3.375 0 -3.375 0 0 0 Z " fill="#676767" transform="translate(169,136)"/>
<path d="M0 0 C-1.4562545 0.67119549 -2.91507867 1.33681807 -4.375 2 C-5.59316406 2.556875 -5.59316406 2.556875 -6.8359375 3.125 C-9 4 -9 4 -11 4 C-10.67 2.68 -10.34 1.36 -10 0 C-6.26432828 -0.76411467 -3.65188082 -1.07174763 0 0 Z " fill="#878685" transform="translate(72,96)"/>
<path d="M0 0 C1.98 0 3.96 0 6 0 C6 0.66 6 1.32 6 2 C6.66 2 7.32 2 8 2 C8 2.66 8 3.32 8 4 C6.68 4.33 5.36 4.66 4 5 C4 4.34 4 3.68 4 3 C2.68 2.67 1.36 2.34 0 2 C0 1.34 0 0.68 0 0 Z " fill="#8B8B8B" transform="translate(219,57)"/>
<path d="M0 0 C0.66 0.33 1.32 0.66 2 1 C1.50628906 1.45890625 1.01257812 1.9178125 0.50390625 2.390625 C-0.13675781 3.00421875 -0.77742188 3.6178125 -1.4375 4.25 C-2.07558594 4.85328125 -2.71367187 5.4565625 -3.37109375 6.078125 C-5.08516306 8.10048016 -5.59358878 9.41270605 -6 12 C-6.66 11.67 -7.32 11.34 -8 11 C-6.12344231 5.8641579 -4.67025461 3.15557744 0 0 Z " fill="#737273" transform="translate(22,144)"/>
<path d="M0 0 C0.33 0.66 0.66 1.32 1 2 C1.66 2 2.32 2 3 2 C3 4.64 3 7.28 3 10 C2.34 10 1.68 10 1 10 C-0.60725635 6.78548731 -0.05748185 3.56387464 0 0 Z " fill="#2F2F2F" transform="translate(88,117)"/>
<path d="M0 0 C1.65 0.33 3.3 0.66 5 1 C5 1.66 5 2.32 5 3 C4.34 3 3.68 3 3 3 C3.33 4.32 3.66 5.64 4 7 C2.35 6.67 0.7 6.34 -1 6 C-1 5.34 -1 4.68 -1 4 C-0.34 4 0.32 4 1 4 C0.67 2.68 0.34 1.36 0 0 Z " fill="#1E1E1E" transform="translate(183,59)"/>
<path d="M0 0 C1.98 0.66 3.96 1.32 6 2 C5.67 2.66 5.34 3.32 5 4 C5.66 4.66 6.32 5.32 7 6 C2.545 5.01 2.545 5.01 -2 4 C-1.34 2.68 -0.68 1.36 0 0 Z " fill="#6F6F6F" transform="translate(166,48)"/>
<path d="M0 0 C1.32 0 2.64 0 4 0 C5.1577506 3.47325181 5.06866652 6.36067448 5 10 C3.68 9.34 2.36 8.68 1 8 C1.99 7.67 2.98 7.34 4 7 C2.02 3.535 2.02 3.535 0 0 Z " fill="#969696" transform="translate(199,35)"/>
<path d="M0 0 C2.5 1.8125 2.5 1.8125 5 4 C5 4.99 5 5.98 5 7 C2.11562221 5.70700306 0.12780579 4.34058637 -2 2 C-1.34 2 -0.68 2 0 2 C0 1.34 0 0.68 0 0 Z " fill="#474747" transform="translate(135,195)"/>
<path d="M0 0 C1.32 0.33 2.64 0.66 4 1 C3.625 3.4375 3.625 3.4375 3 6 C2.01 6.495 2.01 6.495 1 7 C0.67 4.69 0.34 2.38 0 0 Z " fill="#1F1E1E" transform="translate(231,186)"/>
<path d="M0 0 C0.6875 1.75 0.6875 1.75 1 4 C-0.4375 6.25 -0.4375 6.25 -2 8 C-2.66 7.67 -3.32 7.34 -4 7 C-3.6875 4.625 -3.6875 4.625 -3 2 C-2.01 1.34 -1.02 0.68 0 0 Z " fill="#202020" transform="translate(187,154)"/>
<path d="M0 0 C-5.5 4 -5.5 4 -10 4 C-10 3.34 -10 2.68 -10 2 C-3.375 -1.125 -3.375 -1.125 0 0 Z " fill="#969595" transform="translate(123,81)"/>
<path d="M0 0 C-0.33 0.99 -0.66 1.98 -1 3 C-3.31 3.33 -5.62 3.66 -8 4 C-7.67 3.01 -7.34 2.02 -7 1 C-4.53721199 -0.231394 -2.7204945 -0.07159196 0 0 Z " fill="#313131" transform="translate(115,70)"/>
<path d="M0 0 C2.9375 0.25 2.9375 0.25 6 1 C6.66 1.99 7.32 2.98 8 4 C2.46153846 4.36923077 2.46153846 4.36923077 0.125 2.5 C-0.24625 2.005 -0.6175 1.51 -1 1 C-0.67 0.67 -0.34 0.34 0 0 Z " fill="#2B2B2B" transform="translate(141,61)"/>
<path d="M0 0 C0.66 0.33 1.32 0.66 2 1 C2.4140625 3.28515625 2.4140625 3.28515625 2.625 6.0625 C2.69976562 6.98160156 2.77453125 7.90070313 2.8515625 8.84765625 C2.92503906 9.91306641 2.92503906 9.91306641 3 11 C2.01 10.67 1.02 10.34 0 10 C-0.74926071 6.33694766 -1.2380014 3.57644848 0 0 Z " fill="#595959" transform="translate(266,184)"/>
<path d="M0 0 C1.65 1.65 3.3 3.3 5 5 C4.67 5.66 4.34 6.32 4 7 C2.68 6.67 1.36 6.34 0 6 C-1.125 2.25 -1.125 2.25 0 0 Z " fill="#535353" transform="translate(107,164)"/>
<path d="M0 0 C0.99 0 1.98 0 3 0 C2.25 6.625 2.25 6.625 0 10 C0 6.7 0 3.4 0 0 Z " fill="#E5E5E5" transform="translate(0,160)"/>
<path d="M0 0 C0.928125 0.0825 1.85625 0.165 2.8125 0.25 C0.83829865 2.77259061 -0.15495642 3.2429808 -3.375 3.9375 C-4.7671875 4.0921875 -4.7671875 4.0921875 -6.1875 4.25 C-4.36434338 1.00883268 -3.82500054 0.30000004 0 0 Z " fill="#2C2C2C" transform="translate(158.1875,136.75)"/>
<path d="M0 0 C2.97 0.99 5.94 1.98 9 3 C9 3.66 9 4.32 9 5 C3.46153846 4.50769231 3.46153846 4.50769231 1.125 1.9375 C0.75375 1.298125 0.3825 0.65875 0 0 Z " fill="#8F8F8F" transform="translate(159,80)"/>
<path d="M0 0 C0.66 0.33 1.32 0.66 2 1 C1.01 1.33 0.02 1.66 -1 2 C-1 2.99 -1 3.98 -1 5 C-0.34 5.33 0.32 5.66 1 6 C-0.98 6 -2.96 6 -5 6 C-5 4.68 -5 3.36 -5 2 C-2.625 0.9375 -2.625 0.9375 0 0 Z " fill="#090909" transform="translate(98,58)"/>
<path d="M0 0 C-1.98 0.99 -1.98 0.99 -4 2 C-3.01 2.66 -2.02 3.32 -1 4 C-3.31 4.33 -5.62 4.66 -8 5 C-8 3.68 -8 2.36 -8 1 C-5.07175348 0.02391783 -3.04386724 -0.08226668 0 0 Z " fill="#555555" transform="translate(143,55)"/>
<path d="M0 0 C0.66 0.33 1.32 0.66 2 1 C1.4375 2.9375 1.4375 2.9375 0 5 C-3.625 5.75 -3.625 5.75 -7 6 C-5.35 4.35 -3.7 2.7 -2 1 C-1.67 1.33 -1.34 1.66 -1 2 C-0.67 1.34 -0.34 0.68 0 0 Z " fill="#A2A2A2" transform="translate(100,37)"/>
<path d="M0 0 C0.66 0 1.32 0 2 0 C2.33 2.97 2.66 5.94 3 9 C2.01 9.66 1.02 10.32 0 11 C0 7.37 0 3.74 0 0 Z " fill="#616161" transform="translate(13,184)"/>
<path d="M0 0 C0.66 0.33 1.32 0.66 2 1 C1.67 1.99 1.34 2.98 1 4 C1.66 4 2.32 4 3 4 C3 4.66 3 5.32 3 6 C1.68 6 0.36 6 -1 6 C-1 5.01 -1 4.02 -1 3 C-1.66 3 -2.32 3 -3 3 C-3 2.34 -3 1.68 -3 1 C-2.01 0.67 -1.02 0.34 0 0 Z " fill="#111111" transform="translate(78,66)"/>
<path d="M0 0 C1.65 0.33 3.3 0.66 5 1 C4.67 1.66 4.34 2.32 4 3 C3.34 3 2.68 3 2 3 C2 3.99 2 4.98 2 6 C1.01 6 0.02 6 -1 6 C-0.67 4.02 -0.34 2.04 0 0 Z " fill="#151515" transform="translate(173,55)"/>
<path d="M0 0 C0 1.65 0 3.3 0 5 C-1.32 5.33 -2.64 5.66 -4 6 C-4.33 4.68 -4.66 3.36 -5 2 C-1.125 0 -1.125 0 0 0 Z " fill="#989898" transform="translate(217,48)"/>
<path d="M0 0 C3 1 3 1 4.25 2.875 C5 5 5 5 4 8 C2.35 7.01 0.7 6.02 -1 5 C-0.67 3.35 -0.34 1.7 0 0 Z " fill="#AAAAAA" transform="translate(78,35)"/>
<path d="M0 0 C0.66 0.33 1.32 0.66 2 1 C1.34 1.66 0.68 2.32 0 3 C0.33 3.66 0.66 4.32 1 5 C-0.98 5.99 -0.98 5.99 -3 7 C-3.99 6.01 -4.98 5.02 -6 4 C-5.195625 3.525625 -4.39125 3.05125 -3.5625 2.5625 C-1.15246512 1.23099846 -1.15246512 1.23099846 0 0 Z " fill="#5E5D5E" transform="translate(238,181)"/>
<path d="M0 0 C0.33 0 0.66 0 1 0 C1 2.31 1 4.62 1 7 C0.01 7.33 -0.98 7.66 -2 8 C-2 6.02 -2 4.04 -2 2 C-1.34 2 -0.68 2 0 2 C0 1.34 0 0.68 0 0 Z " fill="#2B2B2B" transform="translate(191,123)"/>
<path d="M0 0 C0.33 0 0.66 0 1 0 C0.4140625 6.15234375 0.4140625 6.15234375 0 8 C-0.99 8.495 -0.99 8.495 -2 9 C-2.125 5.625 -2.125 5.625 -2 2 C-1.34 1.34 -0.68 0.68 0 0 Z " fill="#272727" transform="translate(195,102)"/>
<path d="M0 0 C1.32 0.33 2.64 0.66 4 1 C3.67 1.99 3.34 2.98 3 4 C1.02 4 -0.96 4 -3 4 C-2.01 2.68 -1.02 1.36 0 0 Z " fill="#252525" transform="translate(100,68)"/>
<path d="M0 0 C1.98 0.66 3.96 1.32 6 2 C5.01 2.99 4.02 3.98 3 5 C1.68 4.01 0.36 3.02 -1 2 C-0.67 1.34 -0.34 0.68 0 0 Z " fill="#565656" transform="translate(210,66)"/>
<path d="M0 0 C1.32 0.33 2.64 0.66 4 1 C3.67 1.99 3.34 2.98 3 4 C1.02 4 -0.96 4 -3 4 C-2.01 2.68 -1.02 1.36 0 0 Z " fill="#232323" transform="translate(126,59)"/>
<path d="M0 0 C1.4606285 2.64738916 2 3.89448334 2 7 C1.34 7 0.68 7 0 7 C-0.33 7.66 -0.66 8.32 -1 9 C-1.33 7.02 -1.66 5.04 -2 3 C-1.34 3 -0.68 3 0 3 C0 2.01 0 1.02 0 0 Z " fill="#585858" transform="translate(91,124)"/>
<path d="M0 0 C0.33 0 0.66 0 1 0 C0.6875 3.375 0.6875 3.375 0 7 C-0.99 7.66 -1.98 8.32 -3 9 C-3 7.35 -3 5.7 -3 4 C-2.34 3.67 -1.68 3.34 -1 3 C-0.67 2.01 -0.34 1.02 0 0 Z " fill="#454545" transform="translate(195,107)"/>
<path d="M0 0 C1.093125 0.226875 2.18625 0.45375 3.3125 0.6875 C3.3125 1.0175 3.3125 1.3475 3.3125 1.6875 C2.02323008 2.05029456 0.73096728 2.40246698 -0.5625 2.75 C-1.64144531 3.04583984 -1.64144531 3.04583984 -2.7421875 3.34765625 C-4.6875 3.6875 -4.6875 3.6875 -6.6875 2.6875 C-4.58035839 -0.41123767 -3.86755884 -0.32775922 0 0 Z " fill="#656565" transform="translate(198.6875,232.3125)"/>
<path d="M0 0 C-1.00203321 3.00609963 -1.60028446 4.06176821 -4 6 C-4.99 6 -5.98 6 -7 6 C-5.81636731 2.44910192 -3.99368042 0 0 0 Z " fill="#545454" transform="translate(96,229)"/>
<path d="M0 0 C0.66 0.33 1.32 0.66 2 1 C1.67 1.33 1.34 1.66 1 2 C1.66 2.66 2.32 3.32 3 4 C1.02 4.33 -0.96 4.66 -3 5 C-3 3.68 -3 2.36 -3 1 C-2.01 0.67 -1.02 0.34 0 0 Z " fill="#4D4D4D" transform="translate(97,69)"/>
<path d="M0 0 C2.475 0.495 2.475 0.495 5 1 C4.67 2.65 4.34 4.3 4 6 C3.34 6 2.68 6 2 6 C2 5.01 2 4.02 2 3 C1.34 2.67 0.68 2.34 0 2 C0 1.34 0 0.68 0 0 Z " fill="#111111" transform="translate(201,66)"/>
<path d="M0 0 C0.66 0.33 1.32 0.66 2 1 C1.67 1.33 1.34 1.66 1 2 C1.66 2.66 2.32 3.32 3 4 C1.02 4.33 -0.96 4.66 -3 5 C-3 3.68 -3 2.36 -3 1 C-2.01 0.67 -1.02 0.34 0 0 Z " fill="#4D4D4D" transform="translate(123,60)"/>
<path d="M0 0 C2.31 0.66 4.62 1.32 7 2 C4.42786866 3.61949011 3.32330841 4.04408751 0.25 3.625 C-0.4925 3.41875 -1.235 3.2125 -2 3 C-1.34 2.01 -0.68 1.02 0 0 Z " fill="#646464" transform="translate(193,59)"/>
<path d="M0 0 C1.98 0.66 3.96 1.32 6 2 C5.67 2.99 5.34 3.98 5 5 C3.35 4.67 1.7 4.34 0 4 C0 2.68 0 1.36 0 0 Z " fill="#5F5F5F" transform="translate(183,55)"/>
<path d="M0 0 C-2.93828597 2.50298434 -5.17902761 3.46930939 -9 4 C-8.67 3.01 -8.34 2.02 -8 1 C-5.07175348 0.02391783 -3.04386724 -0.08226668 0 0 Z " fill="#262626" transform="translate(107,53)"/>
<path d="M0 0 C1.32 0.33 2.64 0.66 4 1 C4 2.65 4 4.3 4 6 C3.01 6 2.02 6 1 6 C0.67 4.02 0.34 2.04 0 0 Z " fill="#777777" transform="translate(64,48)"/>
<path d="M0 0 C2.475 0.495 2.475 0.495 5 1 C5 2.65 5 4.3 5 6 C2.525 5.01 2.525 5.01 0 4 C0.66 3.67 1.32 3.34 2 3 C2 2.34 2 1.68 2 1 C1.34 0.67 0.68 0.34 0 0 Z " fill="#515151" transform="translate(79,35)"/>
<path d="M0 0 C1.32 0.33 2.64 0.66 4 1 C3.67 1.99 3.34 2.98 3 4 C2.01 3.67 1.02 3.34 0 3 C0 2.01 0 1.02 0 0 Z " fill="#6C6C6C" transform="translate(221,67)"/>
<path d="M0 0 C0.99 0.33 1.98 0.66 3 1 C3 1.99 3 2.98 3 4 C1.68 3.67 0.36 3.34 -1 3 C-0.67 2.01 -0.34 1.02 0 0 Z " fill="#6C6C6C" transform="translate(72,59)"/>
<path d="M0 0 C0.99 0.33 1.98 0.66 3 1 C2.67 1.99 2.34 2.98 2 4 C1.01 4 0.02 4 -1 4 C-0.67 2.68 -0.34 1.36 0 0 Z " fill="#6D6D6D" transform="translate(193,53)"/>
<path d="M0 0 C1.32 0.33 2.64 0.66 4 1 C3.67 1.99 3.34 2.98 3 4 C2.01 3.67 1.02 3.34 0 3 C0 2.01 0 1.02 0 0 Z " fill="#6E6E6E" transform="translate(100,48)"/>
<path d="M0 0 C0.99 0 1.98 0 3 0 C3 1.32 3 2.64 3 4 C2.01 4 1.02 4 0 4 C-0.33 3.01 -0.66 2.02 -1 1 C-0.67 0.67 -0.34 0.34 0 0 Z " fill="#717171" transform="translate(178,48)"/>
<path d="M0 0 C0.99 0 1.98 0 3 0 C2.67 1.32 2.34 2.64 2 4 C1.01 3.67 0.02 3.34 -1 3 C-0.67 2.01 -0.34 1.02 0 0 Z " fill="#606060" transform="translate(57,67)"/>
<path d="M0 0 C0.99 0.33 1.98 0.66 3 1 C2.67 1.99 2.34 2.98 2 4 C1.01 3.67 0.02 3.34 -1 3 C-0.67 2.01 -0.34 1.02 0 0 Z " fill="#646464" transform="translate(207,59)"/>
<path d="M0 0 C0.66 0 1.32 0 2 0 C2 1.32 2 2.64 2 4 C1.01 4 0.02 4 -1 4 C-0.67 2.68 -0.34 1.36 0 0 Z " fill="#515151" transform="translate(87,53)"/>
</svg>
