<svg width="55" height="55" viewBox="0 0 55 55" fill="none" xmlns="http://www.w3.org/2000/svg">
<path d="M25.7973 0.00915668C24.9509 0.0305456 24.1106 0.103115 23.2765 0.226865C22.039 0.350615 20.8015 0.971657 19.4379 1.59041C17.7031 2.33291 15.966 3.0777 14.355 3.20145C11.6279 4.0677 10.7617 5.30749 10.0192 6.29749C10.0192 6.42124 9.89542 6.54499 9.89542 6.54499C8.90312 8.52728 8.77938 10.5096 9.15063 12.4919C9.52188 13.7317 10.0169 14.85 10.3881 15.9637C11.259 18.3196 12.1252 20.5471 12.4965 23.1504C12.87 23.8952 13.239 24.8852 13.4865 25.8775C14.1052 27.8598 14.7285 30.0896 16.5871 31.8244L16.6008 31.8175C16.6398 31.861 16.6696 31.9092 16.7108 31.9481L16.759 31.9252L16.7131 30.5869C18.1981 28.3548 20.3019 26.8675 23.2765 26.2487C24.4681 25.9967 25.7538 25.905 27.0875 25.9554C28.4759 25.9933 29.8567 26.1745 31.2079 26.4962C34.5538 27.3625 37.1548 29.0996 37.2808 30.5869C37.3427 31.3981 37.3725 32.1796 37.3542 32.961C37.3526 33.1077 37.3473 33.2551 37.3381 33.4033L37.6498 33.5592C37.8374 33.4507 37.9986 33.302 38.1219 33.1237L38.1288 33.1169L38.1425 33.0985C38.2342 32.9748 38.3144 32.8144 38.3946 32.6539C38.4404 32.5692 38.4817 32.4569 38.5229 32.3583C38.9927 31.2996 39.3525 29.716 39.7558 27.8598C39.8796 27.241 40.0079 26.7437 40.1294 26.2487C41.1217 24.0189 42.4829 22.0367 43.8465 20.1758C46.0763 17.0821 48.1823 14.2289 47.9348 10.8831C43.8465 2.95166 38.1448 1.71186 35.1702 1.09311C34.6752 0.969365 34.43 0.969365 34.0588 0.845615C30.9925 0.286448 28.3433 -0.061885 25.7973 0.00915668ZM37.3542 32.961C37.3667 32.2094 37.3422 31.4576 37.2808 30.7083C37.1571 29.0973 34.5538 27.3625 31.0842 26.4962C29.7716 26.1927 28.4336 26.0116 27.0875 25.9554C25.8923 25.9161 24.6966 26.0146 23.524 26.2487C20.6731 26.8675 18.4456 28.3571 17.0821 30.5846L17.199 33.8639C18.7275 33.0504 21.1704 31.861 24.3948 31.5723C24.5438 31.5608 24.7065 31.5608 24.8623 31.5517C25.1304 31.5219 25.4719 31.4508 25.8798 31.4508C29.5625 31.4508 33.369 32.6746 37.0563 35.2275C37.1433 34.598 37.1968 33.9694 37.2167 33.3414L37.3198 33.3942C37.3244 33.2498 37.3519 33.1031 37.3542 32.9587V32.961ZM25.795 0.132907C26.0792 0.12374 26.3771 0.155823 26.6635 0.158115C26.1365 0.153532 25.6117 0.165754 25.0892 0.194782C25.3252 0.181032 25.559 0.139782 25.795 0.132907ZM23.925 0.297907C23.7508 0.318532 23.5744 0.327698 23.4002 0.352907C21.5279 0.621032 19.3348 1.95936 17.0981 2.7477C17.9117 2.4452 18.7344 2.06937 19.5617 1.71645C20.7992 1.0977 22.1627 0.476657 23.2765 0.352907C23.4919 0.320823 23.7096 0.323115 23.925 0.297907ZM23.4002 0.847907C23.7715 0.847907 24.2688 0.847907 24.64 0.971657C24.3618 0.908274 24.0743 0.897393 23.7921 0.939573C24.0394 0.958621 24.283 1.01104 24.5163 1.09541C25.8454 3.38707 23.54 13.1931 22.9602 19.7702C23.2635 21.8562 23.6173 23.9346 24.0213 26.0035C22.4102 21.9152 20.7992 14.7262 20.5494 9.15061C20.4256 6.92082 20.5517 4.93624 21.049 3.45124C21.5417 1.95936 22.2865 0.969365 23.3979 0.845615L23.4002 0.847907ZM30.5869 1.46666C28.7306 6.30207 28.4831 15.4687 28.3594 18.3196C28.2356 19.5571 28.3594 22.2842 28.4831 24.2664C28.4831 24.7614 28.6069 25.2564 28.6069 25.7537C28.6069 25.2564 28.4831 24.8852 28.4831 24.3902C27.4908 16.956 26.251 8.03457 30.5869 1.46666ZM38.2685 2.33749C37.6498 7.29207 35.0488 9.64791 34.1825 14.4833C33.935 18.3242 33.4377 22.7837 33.314 26.6246C33.1902 22.7837 33.314 18.6954 33.9327 14.6048C34.5515 10.3927 35.915 6.17832 38.2685 2.33749ZM14.9623 3.78124C15.4734 3.77639 15.9664 3.97031 16.3373 4.32207L16.3052 4.30603C16.61 4.51686 16.9148 4.78499 17.2058 5.18603C16.7383 7.40436 17.7902 12.1344 17.2975 15.8881C17.4717 19.4356 17.4602 23.1756 19.2431 26.1067C16.9973 22.6462 16.5481 18.2302 16.2135 14.1075C15.9546 11.6096 15.746 9.30186 15.1502 7.45478C14.8202 6.75582 14.5338 6.13707 14.2702 5.57103C14.2152 5.48624 14.1694 5.38999 14.1098 5.30978C13.8849 5.07665 13.7529 4.76943 13.7385 4.44582C13.7385 4.32207 13.86 4.07457 13.986 4.07457C14.1098 3.95082 14.355 3.94624 14.4788 3.82249C14.6373 3.79183 14.8009 3.778 14.9623 3.78124ZM11.8731 5.18603C11.7356 5.23186 11.6623 5.27999 11.5523 5.32582C11.9579 5.24791 12.3819 5.40374 12.744 6.05457C12.3131 8.09874 13.7431 13.7752 13.7248 17.7512C14.4421 21.9862 14.9852 26.5742 17.3273 29.4731C14.6002 26.3771 13.4865 20.9252 12.6202 16.3396C11.8754 12.7462 11.2544 9.64791 10.0169 8.65791C9.89312 8.41041 9.76938 8.28436 9.76938 8.03686C9.76938 7.66561 9.76937 7.16832 10.0169 6.67332C9.38208 8.12624 9.08875 9.57687 9.16896 11.0298C9.07475 9.52904 9.36667 8.02918 10.0169 6.67332C10.0169 6.54957 10.1406 6.54957 10.1406 6.42582C10.1681 6.38916 10.2117 6.34561 10.2415 6.30895C10.3748 6.08131 10.5507 5.88138 10.7594 5.71999C10.8854 5.5802 10.9794 5.44499 11.1238 5.30291C11.0023 5.43124 10.9221 5.55499 10.8167 5.68103C10.8785 5.63978 10.9358 5.59624 11.0092 5.56186C11.1183 5.44156 11.2518 5.34584 11.4007 5.28104C11.5497 5.21625 11.7107 5.18386 11.8731 5.18603ZM11.0092 5.56186C11 5.57791 10.9908 5.58478 10.9817 5.60311L11.0665 5.53436L11.0092 5.56186ZM44.8342 8.16061L44.8227 8.19499C44.9098 8.18353 44.9946 8.15603 45.0817 8.16061C44.9969 8.15603 44.9075 8.18353 44.8181 8.20645C42.8404 14.261 40.4938 20.3156 38.1471 26.3702L38.1425 26.3771C37.9431 27.4427 37.6063 28.4029 36.905 29.1042C37.8973 27.9881 38.0188 26.3748 38.1425 24.3925C38.2663 22.5339 38.2663 20.5517 39.2585 18.5671C39.2585 18.4456 39.2608 18.3264 39.38 18.2027L39.3823 18.1981C39.6046 17.3892 39.8452 16.6192 40.1088 15.8652C41.0667 12.9089 42.7213 8.60978 44.7219 8.21103C44.7585 8.19728 44.7998 8.16749 44.8365 8.16061M19.1904 37.1479L18.4479 37.3954C18.8192 37.8927 19.0667 38.2662 19.3142 38.3877C19.5785 38.5413 19.8771 38.6264 20.1827 38.6352C20.3065 38.6352 20.5517 38.6352 20.6754 38.5114L22.5363 37.8927C22.66 37.8927 22.7838 37.7689 22.9075 37.7689C23.155 37.7689 23.2788 37.7689 23.5263 37.8927L24.1473 38.5114L24.766 38.3877C24.5185 38.0164 24.1473 37.6475 23.8998 37.5237C23.6523 37.4 23.4025 37.2717 23.0313 37.2717H22.7838L20.7992 38.0164H20.4302C20.1804 38.0164 19.9352 38.0164 19.8115 37.8927C19.6877 37.7689 19.4379 37.5214 19.1904 37.1479ZM13.2413 38.3877C12.6225 38.7589 11.754 39.38 10.5142 39.875C9.27437 40.37 8.28438 40.8673 7.78708 41.3623C7.29361 41.8573 7.04688 42.353 7.04688 42.8496C7.04688 43.0971 7.17062 43.2231 7.41812 43.3469C7.54187 43.4706 7.79167 43.4706 7.91542 43.5944C9.64371 44.3444 11.3381 45.1702 12.9938 46.0694C13.2435 46.1931 13.491 46.4429 13.6171 46.5667C13.7408 46.6904 13.8623 46.6904 13.986 46.6904C14.2358 46.6904 14.6048 46.5689 14.8523 46.3192C15.0998 46.0717 15.2243 45.8234 15.2258 45.5744C15.2258 45.3269 15.0998 45.2054 14.8523 45.0817C14.8523 45.0817 13.86 44.5844 12.1252 43.8419C11.1932 43.438 10.2843 42.9828 9.40271 42.4783C9.77396 41.8596 10.5165 41.3623 11.6325 40.8673C12.87 40.3723 13.7408 39.875 14.1098 39.5037C14.2335 39.38 14.2335 39.2562 14.2335 39.1325C14.2045 38.9451 14.118 38.7714 13.986 38.6352C13.8158 38.4816 13.5964 38.3939 13.3673 38.3877H13.2413ZM39.0156 38.3877C38.8291 38.4172 38.6562 38.5037 38.5206 38.6352C38.3969 38.8827 38.2708 39.0087 38.2708 39.1325V39.2562C38.6421 39.6275 39.1417 39.875 39.8842 40.1225C40.5029 40.2462 41.1217 40.496 41.7427 40.6198C42.4852 40.8673 42.981 41.2385 43.23 41.7335V41.8596C43.23 41.9833 42.9802 42.2308 42.4852 42.4783C42.2377 42.6021 41.7404 42.9756 41.1217 43.4706C40.5029 43.8419 40.1294 44.2108 39.7581 44.3346C39.2631 44.5844 38.8919 44.8319 38.7681 45.0817C38.6444 45.2054 38.6444 45.3269 38.6444 45.4506C38.6444 45.6981 38.7681 45.6981 38.8919 45.9456C39.0156 46.1931 39.2631 46.1977 39.3869 46.1977C39.5106 46.1977 39.6344 46.0694 39.7581 46.0694C40.3769 45.6981 41.2477 45.2031 42.2377 44.3346C43.3515 43.4683 44.22 42.8496 44.7173 42.4783C45.2123 42.2308 45.4575 41.981 45.4575 41.6075C45.4575 41.486 45.4575 41.2385 45.21 41.1148C44.3438 40.1225 43.1063 39.506 41.619 39.0087C41.3715 38.885 41.0002 38.7589 40.2554 38.6352C39.8842 38.5114 39.5106 38.3877 39.2631 38.3877H39.0156ZM32.2002 40.2439C31.5815 40.2439 31.0842 40.3723 30.7129 40.7435C30.2179 41.1148 30.0942 41.7335 30.2179 42.4783C30.2179 43.0971 30.4654 43.5921 30.8367 44.0894C31.2079 44.5867 31.7052 44.8342 32.2002 44.8342C32.5715 44.8342 32.819 44.7058 33.1925 44.5821C33.8113 44.2108 34.061 43.5921 34.061 42.4783C34.061 41.6098 33.8113 40.991 33.44 40.6221C33.0778 40.3669 32.6431 40.2328 32.2002 40.2439ZM21.9152 40.37C21.2965 40.37 20.8015 40.496 20.4302 40.8673C19.9329 41.2385 19.8115 41.8573 19.9352 42.6021C19.9352 43.2208 20.1804 43.7158 20.554 44.2108C20.9275 44.7058 21.4202 44.9579 21.9152 44.9579C22.2888 44.9579 22.5363 44.8296 22.9075 44.7058C23.5263 44.3346 23.7738 43.7158 23.7738 42.6021C23.7738 41.6098 23.5263 40.991 23.155 40.7458C22.7935 40.4911 22.3596 40.3593 21.9175 40.37H21.9152ZM21.9152 41.8596C22.2888 41.8596 22.5363 42.1071 22.5363 42.4783C22.5363 42.8496 22.1627 43.0971 21.9175 43.0971C21.544 43.0971 21.2988 42.8496 21.2988 42.4783C21.2988 42.1071 21.544 41.8596 21.9175 41.8596M31.955 41.9833C32.3263 41.9833 32.576 42.2285 32.576 42.6021C32.576 42.8496 32.3263 43.2208 31.9573 43.2208C31.5838 43.2208 31.3385 42.9733 31.3385 42.6021C31.3385 42.2308 31.5815 41.9833 31.955 41.9833ZM25.7629 46.8142L26.1342 47.5567C26.2618 47.7909 26.4293 48.0011 26.6292 48.1777C26.7529 48.3014 27.0027 48.5489 27.2479 48.5489H27.4977C27.7452 48.5489 27.8667 48.5489 27.9904 48.4252C28.1142 48.3014 28.3663 48.3014 28.49 48.1777L28.859 47.8064C28.9827 47.6827 29.1065 47.5567 29.1065 47.4329C29.2302 47.3092 29.2302 47.1854 29.354 47.0617C29.354 46.9379 29.4777 46.8142 29.4777 46.8142C29.354 47.0617 29.1065 47.3092 28.9827 47.5567C28.7352 47.6804 28.6138 47.9302 28.364 47.9302C28.1188 48.0539 27.869 48.0539 27.6215 48.0539C27.374 48.0539 27.1265 48.0539 27.0027 47.9302C26.7552 47.9302 26.6292 47.8064 26.5054 47.6827L26.1342 47.3092C26.0104 47.1854 25.8867 46.9379 25.7629 46.8142ZM23.7783 49.17C21.175 49.17 19.5663 52.6396 15.8492 49.5412C14.8592 55.6142 22.1696 56.1092 25.2679 53.5058C27.3763 51.6496 26.7529 49.0462 23.7783 49.17ZM30.3463 49.17C27.374 49.0462 26.7529 51.6496 28.8613 53.5081C31.9573 56.1092 39.2654 55.6119 38.2754 49.5412C34.5583 52.6396 33.0733 49.17 30.3463 49.17Z" fill="black"/>
</svg>
