<svg width="55" height="55" viewBox="0 0 55 55" fill="none" xmlns="http://www.w3.org/2000/svg">
<path d="M10.3125 17.1875C11.2242 17.1875 12.0985 17.5497 12.7432 18.1943C13.3878 18.839 13.75 19.7133 13.75 20.625V44.6875C13.75 45.5992 13.3878 46.4735 12.7432 47.1182C12.0985 47.7628 11.2242 48.125 10.3125 48.125H3.4375C1.54229 48.125 0 46.585 0 44.6875V20.625C0 18.7275 1.54229 17.1875 3.4375 17.1875H10.3125ZM30.9375 6.875C31.8492 6.875 32.7235 7.23716 33.3682 7.88182C34.0128 8.52648 34.375 9.40082 34.375 10.3125V44.6875C34.375 45.5992 34.0128 46.4735 33.3682 47.1182C32.7235 47.7628 31.8492 48.125 30.9375 48.125H24.0625C22.1673 48.125 20.625 46.585 20.625 44.6875V10.3125C20.625 8.415 22.1673 6.875 24.0625 6.875H30.9375ZM51.5625 24.0625C52.4742 24.0625 53.3485 24.4247 53.9932 25.0693C54.6378 25.714 55 26.5883 55 27.5V44.6875C55 45.5992 54.6378 46.4735 53.9932 47.1182C53.3485 47.7628 52.4742 48.125 51.5625 48.125H44.6875C43.7758 48.125 42.9015 47.7628 42.2568 47.1182C41.6122 46.4735 41.25 45.5992 41.25 44.6875V27.5C41.25 26.5883 41.6122 25.714 42.2568 25.0693C42.9015 24.4247 43.7758 24.0625 44.6875 24.0625H51.5625Z" fill="black"/>
</svg>
