<svg width="55" height="55" viewBox="0 0 55 55" fill="none" xmlns="http://www.w3.org/2000/svg">
<g clip-path="url(#clip0_46_132)">
<path d="M30.8985 1.03493e-05C30.4833 0.0132861 30.0748 0.108843 29.6968 0.281144C29.3187 0.453444 28.9787 0.699062 28.6962 1.00376L16.3075 14.2679L7.47541 23.7233C6.19141 25.0947 5.24301 26.7451 4.70478 28.545C4.58866 28.9316 4.49304 29.324 4.41832 29.7206C4.07298 31.5139 4.12146 33.3608 4.56041 35.1335C4.75672 35.9328 5.02439 36.7128 5.3602 37.4642C6.05896 39.0246 7.04732 40.4383 8.27291 41.6304L18.0744 51.2394L18.1637 51.3265C23.3154 56.2879 31.5746 56.2146 36.6415 51.1569L42.1323 45.6752C43.3698 44.4377 43.3698 42.4348 42.1392 41.195C41.547 40.6014 40.7435 40.2673 39.9051 40.266C39.0667 40.2647 38.2621 40.5964 37.6681 41.1881L32.1773 46.6698C30.8974 47.9338 29.1755 48.6499 27.3767 48.6661C25.5779 48.6824 23.8434 47.9976 22.5408 46.7569L22.495 46.7133L12.6958 37.1044C11.2017 35.6377 10.4683 33.7379 10.5233 31.9183C10.5345 31.5149 10.5852 31.1134 10.6746 30.7198C10.9054 29.7217 11.3946 28.8018 12.0931 28.0523L20.9229 18.5946C23.3475 15.9958 28.2654 15.6842 31.075 17.9575L39.0981 24.4452C40.4571 25.5452 42.4462 25.3321 43.5439 23.9708C44.0701 23.3169 44.3157 22.4811 44.2268 21.6465C44.1379 20.8119 43.7217 20.0465 43.0696 19.5181L35.0487 13.0304C33.2154 11.5477 31.0017 10.6356 28.6917 10.2758L33.3094 5.33043C33.735 4.87274 34.016 4.29949 34.1169 3.68266C34.2179 3.06583 34.1343 2.43293 33.8767 1.86343C33.6192 1.29394 33.1991 0.813243 32.6692 0.481713C32.1393 0.150183 31.5233 -0.0173995 30.8985 1.03493e-05ZM24.3306 29.3677C23.9149 29.3677 23.5033 29.4497 23.1193 29.6089C22.7353 29.7681 22.3865 30.0015 22.0928 30.2956C21.799 30.5898 21.5662 30.9389 21.4075 31.3232C21.2489 31.7074 21.1675 32.1191 21.1681 32.5348C21.1675 32.9505 21.2489 33.3622 21.4075 33.7464C21.5662 34.1307 21.799 34.4798 22.0928 34.774C22.3865 35.0681 22.7353 35.3015 23.1193 35.4607C23.5033 35.6199 23.9149 35.7019 24.3306 35.7019H47.6437C48.0594 35.7019 48.471 35.6199 48.855 35.4607C49.239 35.3015 49.5879 35.0681 49.8816 34.774C50.1753 34.4798 50.4082 34.1307 50.5668 33.7464C50.7255 33.3622 50.8068 32.9505 50.8062 32.5348C50.8068 32.1191 50.7255 31.7074 50.5668 31.3232C50.4082 30.9389 50.1753 30.5898 49.8816 30.2956C49.5879 30.0015 49.239 29.7681 48.855 29.6089C48.471 29.4497 48.0594 29.3677 47.6437 29.3677H24.3306Z" fill="black"/>
</g>
<defs>
<clipPath id="clip0_46_132">
<rect width="55" height="55" fill="white"/>
</clipPath>
</defs>
</svg>
