<svg width="79" height="107" viewBox="0 0 79 107" fill="none" xmlns="http://www.w3.org/2000/svg">
<g clip-path="url(#clip0_104_397)">
<path d="M9.91908 50.59L1.23908 12.61C0.0690771 7.52 3.30908 2.4 8.42908 1.24C9.12908 1.08 9.83908 1 10.5391 1C14.8991 1 18.8591 4 19.8591 8.39L28.2391 45.06L36.6191 8.39C37.6191 4 41.5891 1 45.9491 1C46.6491 1 47.3491 1.07 48.0591 1.24C53.1791 2.4 56.4191 7.52 55.2491 12.62L47.8191 45.13C48.9891 44.61 50.2891 44.32 51.6591 44.32C53.6991 44.32 55.5991 44.97 57.1591 46.07C58.7191 47.17 59.9391 48.72 60.6091 50.53C61.4891 49.55 62.5591 48.74 63.7791 48.19C64.9891 47.63 66.3391 47.32 67.7491 47.32C72.9991 47.32 77.2991 51.6 77.2991 56.82V70.36C77.4291 89.8 61.3091 105.91 41.5791 105.91H39.6191C29.7591 105.91 20.8291 101.93 14.3591 95.5C7.89908 89.07 3.89908 80.18 3.89908 70.36C3.89908 63.04 6.11908 56.25 9.92908 50.6L9.91908 50.59Z" fill="#FFCADC" stroke="#001405" stroke-width="2" stroke-linecap="round" stroke-linejoin="round"/>
<path d="M76.5587 56.68C76.5587 51.46 72.4487 47.22 67.3887 47.22C62.3287 47.22 58.2188 51.46 58.2188 56.68V64.9C58.2188 70.12 62.3287 74.36 67.3887 74.36C72.4487 74.36 76.5587 70.12 76.5587 64.9V56.68Z" stroke="#001405" stroke-width="2" stroke-linecap="round" stroke-linejoin="round"/>
<path d="M60.4181 53.74C60.4181 48.52 56.3081 44.28 51.2481 44.28C46.1881 44.28 42.0781 48.52 42.0781 53.74V61.96C42.0781 67.18 46.1881 71.42 51.2481 71.42C56.3081 71.42 60.4181 67.18 60.4181 61.96V53.74Z" fill="#FFCADC" stroke="#001405" stroke-width="2" stroke-linecap="round" stroke-linejoin="round"/>
<path d="M22.0988 67.02H39.6088C44.1888 67.02 47.9388 63.39 47.9388 58.95C47.9388 54.51 44.1888 50.88 39.6088 50.88H19.8888C16.5288 50.88 13.6288 52.82 12.3088 55.61C12.3088 55.61 10.6588 58.69 9.79883 62.94" fill="#FFCADC"/>
<path d="M22.0988 67.02H39.6088C44.1888 67.02 47.9388 63.39 47.9388 58.95C47.9388 54.51 44.1888 50.88 39.6088 50.88H19.8888C16.5288 50.88 13.6288 52.82 12.3088 55.61C12.3088 55.61 10.6588 58.69 9.79883 62.94" stroke="#001405" stroke-width="2" stroke-linecap="round" stroke-linejoin="round"/>
</g>
<defs>
<clipPath id="clip0_104_397">
<rect width="78.29" height="106.9" fill="white"/>
</clipPath>
</defs>
</svg>
