<svg width="102" height="102" viewBox="0 0 102 102" fill="none" xmlns="http://www.w3.org/2000/svg">
<g clip-path="url(#clip0_104_472)">
<path d="M51 101C78.6142 101 101 78.6142 101 51C101 23.3858 78.6142 1 51 1C23.3858 1 1 23.3858 1 51C1 78.6142 23.3858 101 51 101Z" fill="#FFCADC" stroke="#001405" stroke-width="2"/>
<path d="M34.0805 52.7C35.0705 61.11 42.2305 67.46 50.7105 67.46C59.1905 67.46 66.3605 61.11 67.3405 52.7L63.4605 52.23C62.7105 58.68 57.2105 63.55 50.7005 63.55C44.1905 63.55 38.7005 58.68 37.9405 52.23L34.0605 52.7H34.0805Z" fill="#001405"/>
<path d="M50.7207 79.2C66.4407 79.2 79.2207 66.42 79.2207 50.7C79.2207 34.98 66.4107 22.22 50.7207 22.22C35.0307 22.22 22.2207 35 22.2207 50.72C22.2207 66.44 35.0007 79.22 50.7207 79.22V79.19V79.2ZM50.7207 26.12C64.2807 26.12 75.3207 37.16 75.3207 50.72C75.3207 64.28 64.2807 75.32 50.7207 75.32C37.1607 75.32 26.1207 64.28 26.1207 50.72C26.1207 37.16 37.1607 26.12 50.7207 26.12Z" fill="#001405"/>
<path d="M37.1798 46.6299C37.9898 46.6299 38.7898 46.3399 39.3698 45.7199C39.9398 45.1499 40.2798 44.3699 40.2798 43.5299C40.2798 43.1399 40.1798 42.7199 40.0198 42.3599C39.8598 41.9999 39.6598 41.6299 39.3698 41.3699C38.1998 40.1999 36.1698 40.1999 34.9998 41.3699C34.7098 41.6299 34.4798 41.9999 34.3498 42.3599C34.1898 42.7299 34.0898 43.1099 34.0898 43.5299C34.0898 44.3599 34.4298 45.1499 34.9998 45.7199C35.5698 46.3399 36.3498 46.6299 37.1898 46.6299H37.1798Z" fill="#001405"/>
<path d="M64.2502 46.6299C65.0602 46.6299 65.8602 46.3399 66.4402 45.7199C67.0102 45.1499 67.3502 44.3699 67.3502 43.5299C67.3502 43.1399 67.2502 42.7199 67.0902 42.3599C66.9302 41.9999 66.7302 41.6299 66.4402 41.3699C65.2702 40.1999 63.2402 40.1999 62.0702 41.3699C61.7802 41.6299 61.5502 41.9999 61.4202 42.3599C61.2602 42.7299 61.1602 43.1099 61.1602 43.5299C61.1602 44.3599 61.5002 45.1499 62.0702 45.7199C62.6402 46.3399 63.4202 46.6299 64.2602 46.6299H64.2502Z" fill="#001405"/>
</g>
<defs>
<clipPath id="clip0_104_472">
<rect width="102" height="102" fill="white"/>
</clipPath>
</defs>
</svg>
