<svg width="102" height="102" viewBox="0 0 102 102" fill="none" xmlns="http://www.w3.org/2000/svg">
<g clip-path="url(#clip0_104_418)">
<path d="M51 101C78.6142 101 101 78.6142 101 51C101 23.3858 78.6142 1 51 1C23.3858 1 1 23.3858 1 51C1 78.6142 23.3858 101 51 101Z" fill="#FBE74E" stroke="#001405" stroke-width="2"/>
<path d="M33.5505 58.15H45.4805L38.7905 75.25C38.1405 76.94 38.7405 78.79 40.2505 79.76C40.8805 80.18 41.5805 80.36 42.2905 80.36C43.2805 80.36 44.2505 79.97 44.9805 79.21L72.6405 50.78C73.6805 49.69 74.0005 48.1 73.4005 46.71C72.8005 45.33 71.4405 44.42 69.9305 44.42H58.0005L64.6805 27.32C65.3305 25.63 64.7305 23.78 63.2205 22.81C61.7005 21.82 59.7505 22.06 58.4905 23.36L30.8605 51.79C29.7905 52.88 29.5005 54.47 30.0805 55.86C30.6805 57.24 32.0405 58.15 33.5505 58.15ZM60.7605 26.64L54.2805 43.22C53.8405 44.37 53.9705 45.67 54.6705 46.71C55.3705 47.73 56.5205 48.35 57.7805 48.35H69.5805L42.7605 75.95L49.2405 59.37C49.6805 58.22 49.5505 56.92 48.8505 55.88C48.1505 54.86 47.0005 54.24 45.7405 54.24H33.9105L60.7605 26.64Z" fill="#001405"/>
</g>
<defs>
<clipPath id="clip0_104_418">
<rect width="102" height="102" fill="white"/>
</clipPath>
</defs>
</svg>
