<svg width="128" height="153" viewBox="0 0 128 153" fill="none" xmlns="http://www.w3.org/2000/svg">
<g clip-path="url(#clip0_104_481)">
<path d="M25.5699 151.17L1.16992 19.88L101.86 1.17004L126.26 132.45L25.5699 151.17Z" fill="#FBE74E" stroke="#001405" stroke-width="2"/>
<path d="M19.4571 44.5731C18.34 44.77 17.2552 44.7498 16.2026 44.5123C15.148 44.2634 14.186 43.8395 13.3164 43.2407C12.4469 42.6418 11.7159 41.8951 11.1233 41.0007C10.5421 40.1042 10.1541 39.1031 9.95913 37.9975C9.76418 36.8918 9.78645 35.8184 10.026 34.7772C10.2769 33.734 10.7084 32.7823 11.3207 31.9222C11.9329 31.0621 12.693 30.3404 13.6009 29.7572C14.5068 29.1627 15.5183 28.7669 16.6353 28.5699C17.6839 28.385 18.702 28.3936 19.6896 28.5955C20.6886 28.7954 21.6054 29.1627 22.44 29.6971L22.2465 32.7987C21.6425 32.106 20.887 31.587 19.9799 31.2415C19.0822 30.8827 18.1261 30.7927 17.1117 30.9716C16.0858 31.1525 15.2011 31.5671 14.4574 32.2153C13.7252 32.8615 13.1884 33.6496 12.847 34.5795C12.517 35.5074 12.4434 36.4899 12.6263 37.5272C12.8072 38.553 13.2124 39.4512 13.8418 40.2216C14.4807 40.9787 15.2547 41.5356 16.1638 41.8924C17.0843 42.2472 18.0574 42.3342 19.0833 42.1533C20.0977 41.9744 20.9654 41.5629 21.6862 40.9186C22.4185 40.2724 22.9509 39.5263 23.2836 38.6802L24.5262 41.5285C23.9227 42.3048 23.1868 42.9635 22.3184 43.5044C21.4595 44.0319 20.5057 44.3882 19.4571 44.5731ZM27.3622 42.8619L24.6489 27.4742L28.889 26.7266C29.9263 26.5437 30.8321 26.5485 31.6065 26.741C32.3902 26.9202 33.0496 27.227 33.5845 27.6615C34.1175 28.0847 34.5398 28.5802 34.8515 29.1481C35.1612 29.7047 35.3663 30.2679 35.4668 30.8378C35.5673 31.4077 35.5672 32.0071 35.4665 32.636C35.3773 33.2629 35.1556 33.872 34.8015 34.4633C34.4474 35.0546 33.9338 35.5741 33.2605 36.0219C32.5967 36.4563 31.7405 36.7659 30.6919 36.9508L28.9137 37.2643L29.8242 42.4277L27.3622 42.8619ZM28.5218 35.0417L30.1632 34.7523C30.9838 34.6076 31.6084 34.3505 32.0369 33.9812C32.4634 33.6004 32.741 33.1754 32.8698 32.706C33.008 32.2233 33.0359 31.7483 32.9535 31.281C32.8751 30.8364 32.6941 30.41 32.4106 30.0016C32.1364 29.5799 31.7281 29.264 31.1857 29.0541C30.6548 28.8422 29.9732 28.8095 29.1412 28.9563L27.4998 29.2457L28.5218 35.0417ZM21.6594 77.6586C20.7361 77.8214 19.8444 77.7964 18.9842 77.5838C18.1354 77.3691 17.4322 77.0465 16.8744 76.616L17.0659 73.6029C17.5472 74.1997 18.173 74.6829 18.9433 75.0524C19.7137 75.4219 20.5148 75.5333 21.3469 75.3866C22.0536 75.262 22.592 74.9497 22.9622 74.4495C23.3304 73.938 23.4602 73.3745 23.3516 72.759C23.2672 72.2803 23.0839 71.9071 22.8017 71.6396C22.5309 71.37 22.2312 71.1702 21.9027 71.0401C21.5721 70.8985 21.302 70.7993 21.0921 70.7423L19.0828 70.1446C18.6343 70.0004 18.1539 69.8089 17.6417 69.5701C17.1295 69.3314 16.6686 68.9837 16.259 68.527C15.8474 68.059 15.5713 67.426 15.4306 66.6282C15.2859 65.8075 15.3463 65.0505 15.6119 64.3573C15.8775 63.6641 16.3211 63.0805 16.9427 62.6066C17.5643 62.1326 18.3253 61.8163 19.2258 61.6575C20.0921 61.5047 20.8876 61.5173 21.6123 61.695C22.3351 61.8614 22.924 62.069 23.3792 62.3178L23.1988 65.2937C22.7396 64.8223 22.1738 64.446 21.5013 64.165C20.8383 63.8706 20.1705 63.7827 19.498 63.9013C18.8825 64.0098 18.4292 64.2719 18.1382 64.6875C17.8452 65.0918 17.7428 65.5447 17.8313 66.0462C17.8936 66.3995 18.0266 66.6875 18.2304 66.9101C18.4456 67.1308 18.688 67.3054 18.9575 67.4342C19.2364 67.5496 19.5066 67.6488 19.768 67.732L21.8145 68.3407C22.0988 68.4199 22.4377 68.5423 22.8313 68.708C23.2342 68.8602 23.6368 69.0772 24.039 69.3588C24.4413 69.6405 24.7939 70.0073 25.0969 70.4592C25.4112 70.9091 25.6287 71.4761 25.7493 72.1599C25.9061 73.049 25.8359 73.8841 25.5388 74.6651C25.251 75.4328 24.7776 76.0804 24.1185 76.6079C23.4593 77.1355 22.6396 77.4857 21.6594 77.6586ZM25.297 63.1961L24.8991 60.9392L35.3284 59.1002L35.7264 61.3571L31.794 62.0505L34.1093 75.1812L31.5447 75.6334L29.2294 62.5027L25.297 63.1961ZM37.0292 74.6664L40.8734 57.576L40.9076 57.57L50.3652 72.3149L47.7835 72.7701L45.6709 69.3876L40.3537 70.3252L39.5083 74.2292L37.0292 74.6664ZM40.8297 68.1258L44.4543 67.4867L43.1241 65.3413C42.8827 64.9726 42.6538 64.6075 42.4373 64.246C42.2322 63.8826 42.015 63.4508 41.7858 62.9506C41.7415 63.499 41.6851 63.9791 41.6166 64.3907C41.5462 64.791 41.4617 65.2114 41.363 65.6519L40.8297 68.1258ZM47.032 59.3636L46.6341 57.1067L57.0635 55.2678L57.4614 57.5246L53.529 58.218L55.8443 71.3488L53.2797 71.801L50.9644 58.6702L47.032 59.3636ZM65.6343 69.9046C64.7111 70.0674 63.8193 70.0425 62.9592 69.8298C62.1104 69.6151 61.4071 69.2925 60.8493 68.862L61.0408 65.849C61.5221 66.4457 62.148 66.9289 62.9183 67.2984C63.6886 67.668 64.4898 67.7794 65.3219 67.6327C66.0285 67.5081 66.567 67.1957 66.9371 66.6956C67.3053 66.1841 67.4351 65.6205 67.3266 65.005C67.2422 64.5263 67.0588 64.1532 66.7766 63.8856C66.5058 63.6161 66.2061 63.4162 65.8776 63.2861C65.5471 63.1446 65.2769 63.0453 65.0671 62.9883L63.0577 62.3906C62.6092 62.2464 62.1289 62.0549 61.6166 61.8162C61.1044 61.5774 60.6435 61.2297 60.234 60.7731C59.8224 60.305 59.5462 59.6721 59.4055 58.8742C59.2608 58.0535 59.3213 57.2966 59.5869 56.6033C59.8525 55.9101 60.2961 55.3265 60.9176 54.8526C61.5392 54.3787 62.3003 54.0623 63.2007 53.9035C64.067 53.7508 64.8625 53.7633 65.5873 53.9411C66.31 54.1074 66.899 54.315 67.3542 54.5638L67.1737 57.5397C66.7145 57.0683 66.1487 56.6921 65.4763 56.4111C64.8132 56.1166 64.1455 56.0287 63.473 56.1473C62.8575 56.2558 62.4042 56.5179 62.1131 56.9336C61.8201 57.3378 61.7178 57.7907 61.8062 58.2922C61.8685 58.6456 62.0016 58.9335 62.2054 59.1562C62.4205 59.3768 62.6629 59.5515 62.9324 59.6802C63.2113 59.7956 63.4815 59.8949 63.743 59.978L65.7895 60.5868C66.0737 60.6659 66.4127 60.7883 66.8062 60.954C67.2091 61.1063 67.6117 61.3232 68.014 61.6049C68.4162 61.8865 68.7688 62.2533 69.0718 62.7052C69.3862 63.1552 69.6037 63.7221 69.7243 64.406C69.881 65.295 69.8108 66.1301 69.5137 66.9112C69.226 67.6788 68.7525 68.3264 68.0934 68.854C67.4343 69.3815 66.6146 69.7317 65.6343 69.9046Z" fill="black"/>
</g>
<defs>
<clipPath id="clip0_104_481">
<rect width="127.42" height="152.33" fill="white"/>
</clipPath>
</defs>
</svg>
