<svg width="102" height="102" viewBox="0 0 102 102" fill="none" xmlns="http://www.w3.org/2000/svg">
<g clip-path="url(#clip0_104_361)">
<path d="M51 101C78.6142 101 101 78.6142 101 51C101 23.3858 78.6142 1 51 1C23.3858 1 1 23.3858 1 51C1 78.6142 23.3858 101 51 101Z" fill="#05C92F" stroke="#001405" stroke-width="2"/>
<path d="M63.2409 43.1C59.8609 43.1 56.6909 43.47 54.0709 44.1V34.5C54.0709 29.58 44.0409 28.3 38.1409 28.3C32.2409 28.3 22.2109 29.59 22.2109 34.48V63.0601C22.2109 67.98 32.2109 69.2901 38.1409 69.2901C41.5209 69.2901 44.6909 68.9201 47.3109 68.2901V68.34C47.3109 73.26 57.3409 74.5401 63.2409 74.5401C69.1409 74.5401 79.1709 73.23 79.1709 68.34V49.28C79.1709 44.36 69.1409 43.0801 63.2409 43.0801V43.1101V43.1ZM75.2709 53.62V58.67C74.5909 59.46 70.5109 61.1101 63.2409 61.1101C55.9709 61.1101 51.8609 59.43 51.2109 58.67V53.6501C51.2109 53.6501 51.3409 53.7 51.4209 53.73C54.3009 54.89 58.6209 55.55 63.2409 55.55H64.9609C65.2709 55.55 65.5809 55.5201 65.9209 55.5C66.1009 55.5 66.2609 55.5001 66.4409 55.4701C66.7509 55.4701 67.0609 55.42 67.3709 55.39C67.5509 55.39 67.7309 55.3601 67.9209 55.34C68.2609 55.31 68.6009 55.26 68.9309 55.21C69.0909 55.21 69.2409 55.18 69.4009 55.16C69.8909 55.08 70.3909 55 70.8809 54.92C71.3709 54.84 71.8409 54.74 72.3109 54.6C72.4609 54.57 72.5909 54.5201 72.7509 54.4901C73.0609 54.4101 73.3709 54.33 73.6809 54.23C73.8409 54.18 74.0209 54.13 74.1709 54.07C74.4609 53.99 74.7209 53.89 74.9809 53.78C75.0809 53.75 75.1909 53.7001 75.2709 53.68V53.6301V53.62ZM45.9609 55.0401C45.4909 55.1401 45.0009 55.2201 44.5009 55.3301C44.1909 55.3801 43.8809 55.4301 43.5709 55.4901C43.0009 55.5701 42.4009 55.62 41.8009 55.67C41.5109 55.67 41.2309 55.72 40.9209 55.75C40.0109 55.8 39.0709 55.8601 38.1109 55.8601C37.1509 55.8601 36.3409 55.83 35.5409 55.78C35.3809 55.78 35.2509 55.75 35.1009 55.75C34.4509 55.7001 33.8309 55.65 33.2609 55.59C32.9509 55.56 32.6909 55.51 32.4009 55.46C32.0109 55.41 31.6209 55.35 31.2809 55.3C30.9709 55.25 30.7109 55.17 30.4209 55.12C30.1409 55.07 29.8509 55.02 29.5909 54.94C29.3309 54.86 29.1009 54.81 28.8609 54.73C28.6509 54.68 28.4209 54.6 28.2409 54.55C28.0109 54.47 27.8209 54.3901 27.6409 54.3101C27.4809 54.2601 27.3309 54.2101 27.2009 54.1301C27.0209 54.0501 26.8909 53.97 26.7609 53.89C26.6809 53.84 26.5509 53.79 26.4809 53.76C26.3509 53.68 26.3009 53.6 26.2209 53.55C26.1709 53.52 26.1209 53.47 26.0909 53.44V48.39C26.0909 48.39 26.2709 48.4701 26.3809 48.4901C26.6409 48.6001 26.9309 48.7 27.2109 48.78C27.3709 48.83 27.5209 48.88 27.6809 48.94C27.9909 49.05 28.3009 49.1201 28.6409 49.2001C28.7709 49.2301 28.9309 49.28 29.0609 49.3C30.0009 49.54 30.9809 49.69 31.9709 49.85C32.1309 49.85 32.2809 49.9001 32.4409 49.9001C32.7809 49.9501 33.1209 49.98 33.4509 50.03C33.6309 50.03 33.8109 50.0601 34.0009 50.0801C34.3109 50.1101 34.6209 50.13 34.9309 50.16C35.1109 50.16 35.2709 50.16 35.4509 50.19C35.7909 50.19 36.1009 50.2201 36.4109 50.2401H38.1309C38.7309 50.2401 39.4009 50.24 40.0809 50.19H40.3409C40.9909 50.16 41.6709 50.11 42.3409 50.03C42.4709 50.03 42.6009 50.0301 42.7309 50C43.4109 49.92 44.1109 49.8401 44.7809 49.7401C44.9109 49.7401 45.0109 49.69 45.1409 49.69C45.8409 49.59 46.5409 49.43 47.2209 49.2701H47.3009V54.71C47.1209 54.76 46.9909 54.81 46.8109 54.87C46.5509 54.95 46.2609 55.0001 45.9809 55.0801V55.03L45.9609 55.0401ZM27.2009 39.18C27.3609 39.2301 27.5409 39.29 27.6909 39.34C28.0009 39.42 28.2909 39.52 28.6209 39.6C28.7809 39.63 28.9109 39.68 29.0609 39.7001C29.5309 39.8101 29.9909 39.9101 30.4909 40.0201C30.9809 40.1 31.4809 40.18 31.9709 40.26C32.1309 40.26 32.2809 40.3101 32.4409 40.3101C32.7809 40.3601 33.1209 40.39 33.4509 40.44C33.6309 40.44 33.8109 40.4701 34.0009 40.4901C34.3109 40.5201 34.6209 40.54 34.9309 40.57C35.1109 40.57 35.2709 40.57 35.4509 40.6C35.7909 40.6 36.1009 40.6301 36.4109 40.6501H39.8409C40.1509 40.6501 40.4609 40.62 40.8009 40.6C40.9809 40.6 41.1409 40.6 41.3209 40.57C41.6309 40.57 41.9409 40.5201 42.2609 40.4901C42.4409 40.4901 42.6209 40.46 42.8109 40.44C43.1509 40.41 43.4909 40.3601 43.8209 40.3101C43.9709 40.3101 44.1309 40.28 44.2909 40.26C44.7809 40.18 45.2809 40.1 45.7709 40.0201C46.2609 39.9401 46.7309 39.8401 47.2009 39.7001C47.3609 39.6701 47.4909 39.62 47.6409 39.6C47.9509 39.52 48.2609 39.4401 48.5809 39.34C48.7409 39.29 48.9209 39.2301 49.0709 39.18C49.3509 39.1 49.6209 39 49.8709 38.89C49.9709 38.86 50.0809 38.81 50.1609 38.78V43.8301C50.1609 43.8301 50.0309 43.9301 49.9509 43.9901C49.8709 44.0401 49.8509 44.0901 49.7409 44.1501C49.6409 44.2001 49.5109 44.2801 49.3809 44.3301C49.2509 44.3801 49.1709 44.46 49.0109 44.51C48.8809 44.56 48.6709 44.64 48.5209 44.69C48.3409 44.77 48.1809 44.8201 47.9709 44.9001C47.7909 44.9501 47.5809 45.0101 47.3709 45.0801C47.1109 45.1601 46.9009 45.24 46.6209 45.32C46.3909 45.37 46.1009 45.42 45.8709 45.48C45.5909 45.56 45.3009 45.6101 44.9609 45.66C44.6709 45.71 44.3609 45.7401 44.0509 45.7901C43.6909 45.84 43.3509 45.9001 42.9809 45.9501C42.6209 46 42.1709 46.0301 41.7809 46.0601C41.4209 46.0901 41.0809 46.14 40.7109 46.16C39.9009 46.21 39.0509 46.2401 38.1409 46.2401C37.2309 46.2401 36.3709 46.21 35.5709 46.16C35.1809 46.16 34.8409 46.1101 34.4809 46.0601C34.0909 46.0301 33.6709 46.01 33.2809 45.9501C32.8909 45.9001 32.5509 45.85 32.1909 45.7901C31.9009 45.7401 31.5709 45.71 31.3109 45.66C30.9709 45.6101 30.7109 45.53 30.4009 45.48C30.1409 45.43 29.8509 45.38 29.6509 45.32C29.3609 45.24 29.1309 45.1601 28.9009 45.0801C28.6909 45.0301 28.4809 44.9701 28.3009 44.9001C28.0909 44.8201 27.9409 44.77 27.7509 44.69C27.5909 44.64 27.3909 44.56 27.2609 44.51C27.1009 44.43 27.0009 44.3801 26.9009 44.3301C26.7709 44.2801 26.6409 44.2001 26.5409 44.1501C26.4409 44.1001 26.4109 44.0501 26.3309 43.9901C26.2509 43.9401 26.1709 43.8901 26.1209 43.8301V38.78C26.1209 38.78 26.3309 38.86 26.4009 38.89C26.6609 38.99 26.9209 39.1 27.2109 39.18H27.1809H27.2009ZM75.0609 49.28C75.0609 49.28 75.0109 49.33 74.9609 49.3601C74.8809 49.41 74.8009 49.4601 74.7009 49.5201C74.6009 49.57 74.4709 49.6501 74.3409 49.7001C74.2109 49.75 74.0809 49.8101 73.9509 49.8801C73.7909 49.9601 73.6109 50.01 73.4009 50.09C73.2409 50.14 73.0609 50.2201 72.8809 50.2701C72.6709 50.35 72.4109 50.4 72.1809 50.48C71.9709 50.53 71.7609 50.58 71.5309 50.66C71.2409 50.74 70.9309 50.79 70.6209 50.87C70.3909 50.92 70.1509 50.98 69.8709 51.03C69.5309 51.08 69.1409 51.14 68.7509 51.19C68.4909 51.22 68.2309 51.27 67.9409 51.3C67.5009 51.35 66.9809 51.3801 66.4909 51.43C66.2309 51.43 66.0009 51.48 65.7109 51.48C64.9309 51.53 64.1009 51.5601 63.2109 51.5601C59.1009 51.5601 55.2309 50.9801 52.8209 50.0401C52.4809 49.9101 52.2509 49.78 52.0209 49.67C51.9709 49.64 51.8909 49.62 51.8409 49.57C51.6809 49.49 51.5509 49.4101 51.4509 49.3301C51.4509 49.3301 51.4209 49.33 51.4009 49.3C51.5009 49.22 51.6609 49.1201 51.8409 49.0401C51.8909 49.01 51.9409 48.99 51.9909 48.96C52.2209 48.85 52.4609 48.72 52.8009 48.59C55.2209 47.64 59.1109 47.0601 63.1909 47.0601C69.8909 47.0601 73.9209 48.48 75.0109 49.32L75.0609 49.2701V49.28ZM49.9609 34.48C49.9609 34.48 49.9109 34.5301 49.8609 34.5601C49.7809 34.6101 49.7009 34.6701 49.6309 34.7201C49.5309 34.8001 49.3709 34.85 49.2409 34.93C49.1409 34.9801 49.0109 35.04 48.8809 35.09C48.7009 35.17 48.5109 35.25 48.3109 35.3C48.1509 35.35 47.9709 35.41 47.7909 35.48C47.5609 35.56 47.3209 35.61 47.0609 35.69C46.8509 35.74 46.6409 35.79 46.4409 35.85C46.1609 35.93 45.8409 35.9801 45.5309 36.0601C45.3009 36.1101 45.0609 36.1601 44.8009 36.2201C44.4409 36.2701 44.0709 36.3201 43.6809 36.3801C43.4209 36.4101 43.1609 36.46 42.8709 36.48C42.4309 36.53 41.9109 36.5601 41.4209 36.6101C41.1609 36.6101 40.9309 36.66 40.6409 36.66C39.8609 36.71 39.0309 36.7401 38.1509 36.7401C37.2709 36.7401 36.4309 36.71 35.6509 36.66C35.3909 36.66 35.1309 36.6101 34.8709 36.6101C34.3809 36.5801 33.8809 36.53 33.4109 36.48C33.1309 36.45 32.8609 36.4001 32.6109 36.3801C32.2209 36.3301 31.8309 36.2701 31.4909 36.2201C31.2309 36.1701 31.0009 36.1101 30.7609 36.0601C30.4509 36.0101 30.1409 35.93 29.8509 35.85C29.6209 35.8 29.4109 35.74 29.2309 35.69C28.9709 35.61 28.7409 35.56 28.5009 35.48C28.3209 35.43 28.1609 35.37 27.9809 35.3C27.7709 35.22 27.5909 35.14 27.4309 35.09C27.3009 35.04 27.1709 34.99 27.0709 34.93C26.9109 34.85 26.7809 34.8001 26.6809 34.7201C26.6009 34.6701 26.5009 34.6101 26.4509 34.5601C26.4009 34.5301 26.3709 34.51 26.3509 34.48C27.4409 33.64 31.4709 32.2201 38.1709 32.2201C44.8709 32.2201 48.9009 33.64 49.9909 34.48H49.9609ZM38.1409 65.34C30.8909 65.34 26.7809 63.66 26.1109 62.89V57.84C26.1109 57.84 26.2909 57.92 26.4009 57.94C26.6609 58.04 26.9509 58.15 27.2109 58.23C27.3709 58.28 27.5209 58.33 27.7009 58.39C28.0109 58.49 28.3209 58.5701 28.6309 58.6501C28.7909 58.6801 28.9209 58.73 29.0709 58.75C29.5409 58.85 30.0009 58.96 30.5009 59.07C30.9909 59.15 31.4909 59.2301 31.9809 59.3101C32.1409 59.3101 32.2909 59.3601 32.4509 59.3601C32.7909 59.41 33.1309 59.4401 33.4609 59.4901C33.6409 59.4901 33.8209 59.5201 34.0109 59.5401C34.3209 59.5701 34.6309 59.59 34.9409 59.62C35.1209 59.62 35.2809 59.6201 35.4609 59.6501C35.8009 59.6501 36.1109 59.68 36.4209 59.7001H38.1409C39.1809 59.7001 40.1909 59.65 41.1809 59.59C41.4709 59.59 41.7509 59.54 42.0109 59.51C42.7609 59.46 43.4909 59.3801 44.1909 59.2701C44.4209 59.24 44.6609 59.22 44.8909 59.17C45.7209 59.04 46.5309 58.8801 47.2809 58.7001V64.14C44.8909 64.85 41.5609 65.24 38.1109 65.24L38.1409 65.32V65.34ZM63.2409 70.63C55.9909 70.63 51.8909 68.9501 51.2109 68.18V63.1301C54.6709 64.5801 59.6809 65.0501 63.2409 65.0501C66.8009 65.0501 71.8209 64.5801 75.2709 63.1301V68.18C74.5909 68.9701 70.4909 70.63 63.2409 70.63Z" fill="#001405"/>
</g>
<defs>
<clipPath id="clip0_104_361">
<rect width="102" height="102" fill="white"/>
</clipPath>
</defs>
</svg>
